<svg xmlns="http://www.w3.org/2000/svg" xmlns:xlink="http://www.w3.org/1999/xlink" viewBox="0 0 1459.07 343.6"><defs><style>.cls-1{fill:none;}.cls-2{fill:#fff;}.cls-3{clip-path:url(#clip-path);}.cls-4{fill:#d6e039;}.cls-5{fill:#d5e039;}.cls-6{fill:#d4e039;}.cls-7{fill:#d3df39;}.cls-8{fill:#d2df3a;}.cls-9{fill:#d1df3a;}.cls-10{fill:#d0df3a;}.cls-11{fill:#cfdf3a;}.cls-12{fill:#cede3a;}.cls-13{fill:#cdde3a;}.cls-14{fill:#ccde3a;}.cls-15{fill:#cbde3b;}.cls-16{fill:#cadd3b;}.cls-17{fill:#c9dd3b;}.cls-18{fill:#c8dd3b;}.cls-19{fill:#c7dd3b;}.cls-20{fill:#c6dd3b;}.cls-21{fill:#c5dc3b;}.cls-22{fill:#c4dc3c;}.cls-23{fill:#c3dc3c;}.cls-24{fill:#c2dc3c;}.cls-25{fill:#c1dc3c;}.cls-26{fill:#c0db3c;}.cls-27{fill:#bfdb3c;}.cls-28{fill:#bedb3d;}.cls-29{fill:#bddb3d;}.cls-30{fill:#bcda3d;}.cls-31{fill:#bbda3d;}.cls-32{fill:#bada3d;}.cls-33{fill:#b9da3d;}.cls-34{fill:#b8da3d;}.cls-35{fill:#b7d93e;}.cls-36{fill:#b6d93e;}.cls-37{fill:#b5d93e;}.cls-38{fill:#b4d93e;}.cls-39{fill:#b3d93e;}.cls-40{fill:#b2d83e;}.cls-41{fill:#b1d83e;}.cls-42{fill:#b0d83f;}.cls-43{fill:#afd83f;}.cls-44{fill:#aed83f;}.cls-45{fill:#add73f;}.cls-46{fill:#acd73f;}.cls-47{fill:#abd73f;}.cls-48{fill:#aad73f;}.cls-49{fill:#a9d640;}.cls-50{fill:#a8d640;}.cls-51{fill:#a7d640;}.cls-52{fill:#a6d640;}.cls-53{fill:#a5d640;}.cls-54{fill:#a4d540;}.cls-55{fill:#a3d540;}.cls-56{fill:#a2d541;}.cls-57{fill:#a1d541;}.cls-58{fill:#a0d541;}.cls-59{fill:#9fd441;}.cls-60{fill:#9ed441;}.cls-61{fill:#9dd441;}.cls-62{fill:#9cd442;}.cls-63{fill:#9bd342;}.cls-64{fill:#9ad342;}.cls-65{fill:#99d342;}.cls-66{fill:#98d342;}.cls-67{fill:#97d342;}.cls-68{fill:#96d242;}.cls-69{fill:#95d243;}.cls-70{fill:#94d243;}.cls-71{fill:#93d243;}.cls-72{fill:#92d243;}.cls-73{fill:#91d143;}.cls-74{fill:#90d143;}.cls-75{fill:#8fd143;}.cls-76{fill:#8ed144;}.cls-77{fill:#8dd144;}.cls-78{fill:#8cd044;}.cls-79{fill:#8bd044;}.cls-80{fill:#8ad044;}.cls-81{fill:#89d044;}.cls-82{fill:#88cf44;}.cls-83{fill:#87cf45;}.cls-84{fill:#86cf45;}.cls-85{fill:#85cf45;}.cls-86{fill:#84cf45;}.cls-87{fill:#83ce45;}.cls-88{fill:#82ce45;}.cls-89{fill:#81ce45;}.cls-90{fill:#80ce46;}.cls-91{fill:#7fce46;}.cls-92{fill:#7ecd46;}.cls-93{fill:#7dcd46;}.cls-94{fill:#7ccd46;}.cls-95{fill:#7bcd46;}.cls-96{fill:#7acd47;}.cls-97{fill:#78cc47;}.cls-98{fill:#77cc47;}.cls-99{fill:#76cc47;}.cls-100{fill:#75cc47;}.cls-101{fill:#74cb47;}.cls-102{fill:#73cb47;}.cls-103{fill:#72cb48;}.cls-104{fill:#71cb48;}.cls-105{fill:#70cb48;}.cls-106{fill:#6fca48;}.cls-107{fill:#6eca48;}.cls-108{fill:#6dca48;}.cls-109{fill:#6cca48;}.cls-110{fill:#6bca49;}.cls-111{fill:#6ac949;}.cls-112{fill:#69c949;}.cls-113{fill:#68c949;}.cls-114{fill:#67c949;}.cls-115{fill:#66c849;}.cls-116{fill:#65c849;}.cls-117{fill:#64c84a;}.cls-118{fill:#63c84a;}.cls-119{fill:#62c84a;}.cls-120{fill:#61c74a;}.cls-121{fill:#60c74a;}.cls-122{fill:#5fc74a;}.cls-123{fill:#5ec74a;}.cls-124{fill:#5dc74b;}.cls-125{fill:#5cc64b;}.cls-126{fill:#5bc64b;}.cls-127{fill:#5ac64b;}.cls-128{fill:#59c64b;}.cls-129{fill:#58c64b;}.cls-130{fill:#57c54b;}.cls-131{fill:#56c54c;}.cls-132{fill:#55c54c;}.cls-133{fill:#54c54c;}.cls-134{fill:#53c44c;}.cls-135{fill:#52c44c;}.cls-136{fill:#51c44c;}.cls-137{fill:#50c44d;}.cls-138{fill:#4fc44d;}.cls-139{fill:#4ec34d;}.cls-140{fill:#4dc34d;}.cls-141{fill:#4cc34d;}.cls-142{fill:#4bc34d;}.cls-143{fill:#4ac34d;}.cls-144{fill:#49c24e;}.cls-145{fill:#48c24e;}.cls-146{fill:#47c24e;}.cls-147{fill:#46c24e;}.cls-148{fill:#45c14e;}.cls-149{fill:#44c14e;}.cls-150{fill:#43c14e;}.cls-151{fill:#42c14f;}.cls-152{fill:#41c14f;}.cls-153{fill:#40c04f;}.cls-154{fill:#3fc04f;}.cls-155{fill:#3ec04f;}.cls-156{fill:#3dc04f;}.cls-157{fill:#3cc04f;}.cls-158{fill:#3bbf50;}.cls-159{fill:#3abf50;}.cls-160{fill:#39bf50;}.cls-161{fill:#38bf50;}.cls-162{fill:#37bf50;}.cls-163{fill:#36be50;}.cls-164{fill:#35be50;}.cls-165{fill:#34be51;}.cls-166{fill:#33be51;}.cls-167{fill:#32bd51;}.cls-168{fill:#31bd51;}.cls-169{fill:#30bd51;}.cls-170{fill:#2fbd51;}.cls-171{fill:#2ebd52;}.cls-172{fill:#2dbc52;}.cls-173{fill:#2cbc52;}.cls-174{fill:#2bbc52;}.cls-175{fill:#2abc52;}.cls-176{fill:#29bc52;}.cls-177{fill:#28bb52;}.cls-178{fill:#27bb53;}.cls-179{fill:#26bb53;}.cls-180{fill:#25bb53;}.cls-181{fill:#24ba53;}.cls-182{fill:#23ba53;}.cls-183{fill:#22ba53;}.cls-184{fill:#21ba53;}.cls-185{fill:#20ba54;}.cls-186{fill:#1fb954;}.cls-187{fill:#1eb954;}.cls-188{fill:#1db954;}.cls-189{clip-path:url(#clip-path-2);}.cls-190{fill:#d3df38;}.cls-191{fill:#d2df39;}.cls-192{fill:#d1df39;}.cls-193{fill:#d0df39;}.cls-194{fill:#cfdf39;}.cls-195{fill:#cede39;}.cls-196{fill:#cdde39;}.cls-197{fill:#cbde3a;}.cls-198{fill:#cadd3a;}.cls-199{fill:#c9dd3a;}.cls-200{fill:#c8dd3a;}.cls-201{fill:#c7dd3a;}.cls-202{fill:#c6dd3a;}.cls-203{fill:#c4dc3b;}.cls-204{fill:#c3dc3b;}.cls-205{fill:#c2dc3b;}.cls-206{fill:#c1dc3b;}.cls-207{fill:#c0db3b;}.cls-208{fill:#bedb3c;}.cls-209{fill:#bddb3c;}.cls-210{fill:#bcda3c;}.cls-211{fill:#bbda3c;}.cls-212{fill:#bada3c;}.cls-213{fill:#b9da3c;}.cls-214{fill:#b7d93d;}.cls-215{fill:#b6d93d;}.cls-216{fill:#b5d93d;}.cls-217{fill:#b4d93d;}.cls-218{fill:#b3d93d;}.cls-219{fill:#b2d83d;}.cls-220{fill:#b0d83e;}.cls-221{fill:#afd83e;}.cls-222{fill:#aed83e;}.cls-223{fill:#add73e;}.cls-224{fill:#acd73e;}.cls-225{fill:#a9d63f;}.cls-226{fill:#a8d63f;}.cls-227{fill:#a7d63f;}.cls-228{fill:#a6d63f;}.cls-229{fill:#a5d63f;}.cls-230{fill:#a2d540;}.cls-231{fill:#a1d540;}.cls-232{fill:#a0d540;}.cls-233{fill:#9fd440;}.cls-234{fill:#9cd441;}.cls-235{fill:#9bd341;}.cls-236{fill:#9ad341;}.cls-237{fill:#99d341;}.cls-238{fill:#98d341;}.cls-239{fill:#95d242;}.cls-240{fill:#94d242;}.cls-241{fill:#93d242;}.cls-242{fill:#92d242;}.cls-243{fill:#8ed143;}.cls-244{fill:#8dd143;}.cls-245{fill:#8cd043;}.cls-246{fill:#8bd043;}.cls-247{fill:#87cf44;}.cls-248{fill:#86cf44;}.cls-249{fill:#85cf44;}.cls-250{fill:#84cf44;}.cls-251{fill:#80ce45;}.cls-252{fill:#7fce45;}.cls-253{fill:#7ecd45;}.cls-254{fill:#7acd46;}.cls-255{fill:#78cc46;}.cls-256{fill:#77cc46;}.cls-257{fill:#76cc46;}.cls-258{fill:#72cb47;}.cls-259{fill:#71cb47;}.cls-260{fill:#70cb47;}.cls-261{fill:#6bca48;}.cls-262{fill:#6ac948;}.cls-263{fill:#69c948;}.cls-264{fill:#64c849;}.cls-265{fill:#63c849;}.cls-266{fill:#5dc74a;}.cls-267{fill:#5cc64a;}.cls-268{fill:#56c54b;}.cls-269{fill:#55c54b;}.cls-270{fill:#50c44c;}.cls-271{fill:#4fc44c;}.cls-272{fill:#49c24d;}.cls-273{fill:#48c24d;}.cls-274{fill:#42c14e;}.cls-275{fill:#3bbf4f;}.cls-276{fill:#2ebd51;}.cls-277{fill:#27bb52;}.cls-278{clip-path:url(#clip-path-3);}</style><clipPath id="clip-path" transform="translate(0 2.41)"><path class="cls-1" d="M283,124.39,123.84,32.53,80,7.23a52.81,52.81,0,0,0-53.34,0A52.81,52.81,0,0,0,0,53.44V287.75A52.8,52.8,0,0,0,26.68,334,52.81,52.81,0,0,0,80,334l35.07-20.25,48.3-27.88L283,216.8a53.35,53.35,0,0,0,0-92.41Zm-21.37,55.39L133.69,253.61l-17,9.84-58,33.49a10.61,10.61,0,0,1-15.91-9.19V53.44a10.4,10.4,0,0,1,5.31-9.19,10.92,10.92,0,0,1,5.36-1.46,10.29,10.29,0,0,1,5.24,1.46L122.34,81l139.24,80.39a10.61,10.61,0,0,1,0,18.37Z"/></clipPath><clipPath id="clip-path-2" transform="translate(0 2.41)"><path class="cls-1" d="M163.39,285.83,80,334A53.35,53.35,0,0,1,0,287.75V108.54l42.74,46.38V287.75a10.61,10.61,0,0,0,15.91,9.19l75-43.33Z"/></clipPath><clipPath id="clip-path-3" transform="translate(0 2.41)"><path class="cls-1" d="M309.63,170.59A52.81,52.81,0,0,1,283,216.8l-119.56,69-48.3,27.88,1.57-50.26,17-9.84,127.89-73.83a10.61,10.61,0,0,0,0-18.37L122.34,81l1.5-48.49L283,124.39A52.81,52.81,0,0,1,309.63,170.59Z"/></clipPath></defs><title>logo</title><g id="Layer_2" data-name="Layer 2"><g id="Layer_3" data-name="Layer 3"><path class="cls-2" d="M502,104.09q45.9,0,45.9,46.92v70.38q0,15.3-15.3,15.3t-15.3-15.5V150.4q0-15.71-15.61-15.71h-25.4l.21,86.7q0,15.3-15.3,15.3t-15.3-15.5V150.4q0-15.71-15.51-15.71H405.12V221q0,15.51-15.51,15.51-15.09,0-15.09-15.51V119.29q0-15.09,15.6-15.4Z" transform="translate(0 2.41)"/><path class="cls-2" d="M680.72,119.29v102.1q0,15.11-15.3,15.1l-51.2-.1q-45.9,0-45.9-46.92V119.09q0-15.3,15.3-15.3t15.3,15.5v70.79q0,15.71,15.6,15.7h35.6V119.29q0-15.51,15.61-15.5Q680.72,103.79,680.72,119.29Z" transform="translate(0 2.41)"/><path class="cls-2" d="M788.23,134.69h-40.9q-15.62,0-15.61,10.41,0,9.78,15.71,9.79h9.89q45.69.71,45.6,40.8-.21,40.69-45.6,40.8l-41.31-.1q-14.79.09-14.89-14.08.11-15.92,14.79-16h41.21q15.2,0,15.4-10.4,0-10.09-15.1-10.3h-9.89q-46.2.21-46.1-41.11-.31-40.38,45.59-40.39l40.8.1q15.3,0,15.3,15.1Q802.82,134.38,788.23,134.69Z" transform="translate(0 2.41)"/><path class="cls-2" d="M854.63,236.49q-15.51,0-15.5-15.51V134.69q-15.51,0-15.3-14.79,0-15.5,15.3-15.81l15.3-.2q15.29.3,15.3,15.4V221Q869.73,236.49,854.63,236.49ZM846.11,65.13a13.84,13.84,0,0,0-5.66,5.61,15.55,15.55,0,0,0-2,7.65,15.12,15.12,0,0,0,2,7.5,14.32,14.32,0,0,0,5.61,5.6,15.22,15.22,0,0,0,15.05,0,13.94,13.94,0,0,0,5.61-5.6,15.28,15.28,0,0,0-.06-15.15A13.78,13.78,0,0,0,861,65.13a15.52,15.52,0,0,0-7.39-1.94A15.73,15.73,0,0,0,846.11,65.13Z" transform="translate(0 2.41)"/><path class="cls-2" d="M1002.63,221.59q0,15.1-15.3,15.1h-51.2q-45.9,0-45.9-46.92V150.4q0-46.31,45.9-46.31h50.38q16-.11,16,15.2-.1,14.89-15.61,15.2h-51.2q-14.9-.11-14.89,16v40q0,15.6,15.6,15.6l51.21.1Q1002.63,206.19,1002.63,221.59Z" transform="translate(0 2.41)"/><path class="cls-2" d="M1178.07,236.69q-15.61,0-15.61-15.5v-25.4l-50.69-.1-.1,25.5q0,15.5-15.3,15.5t-15.3-15.3V151q0-46.92,45.9-46.92l50.79.1q15.3,0,15.3,15.1v101.9Q1193.06,236.69,1178.07,236.69ZM1162.46,165v-30.3h-35.19q-15.6,0-15.6,15.71V165Z" transform="translate(0 2.41)"/><path class="cls-2" d="M1229,103.89h51.2q46.1,0,46.1,46v39.68q0,46.92-45.9,46.92h-35.9V262q0,15.6-15.3,15.6t-15.3-15.2V119.49Q1213.87,103.89,1229,103.89Zm15.5,30.8v71.2h35.7q15.49,0,15.5-15.71v-40.7q0-14.79-15.5-14.79Z" transform="translate(0 2.41)"/><path class="cls-2" d="M1361.77,103.89H1413q46.11,0,46.1,46v39.68q0,46.92-45.89,46.92h-35.91V262q0,15.6-15.3,15.6t-15.3-15.2V119.49Q1346.67,103.89,1361.77,103.89Zm15.5,30.8v71.2H1413q15.51,0,15.51-15.71v-40.7q0-14.79-15.51-14.79Z" transform="translate(0 2.41)"/><g class="cls-3"><polygon class="cls-4" points="266.88 181.53 215.61 218.87 89.14 45.2 266.88 45.2 266.88 181.53"/><polygon class="cls-4" points="215.61 218.87 215.18 219.18 88.47 45.2 89.14 45.2 215.61 218.87"/><polygon class="cls-5" points="215.18 219.18 214.74 219.5 87.81 45.2 88.47 45.2 215.18 219.18"/><polygon class="cls-6" points="214.74 219.5 214.31 219.81 87.15 45.2 87.81 45.2 214.74 219.5"/><polygon class="cls-7" points="214.31 219.81 213.88 220.13 86.48 45.2 87.15 45.2 214.31 219.81"/><polygon class="cls-8" points="213.88 220.13 213.44 220.44 85.82 45.2 86.48 45.2 213.88 220.13"/><polygon class="cls-9" points="213.44 220.44 213.01 220.76 85.16 45.2 85.82 45.2 213.44 220.44"/><polygon class="cls-10" points="213.01 220.76 212.58 221.08 84.49 45.2 85.16 45.2 213.01 220.76"/><polygon class="cls-11" points="212.58 221.08 212.14 221.39 83.83 45.2 84.49 45.2 212.58 221.08"/><polygon class="cls-12" points="212.14 221.39 211.71 221.71 83.17 45.2 83.83 45.2 212.14 221.39"/><polygon class="cls-13" points="211.71 221.71 211.28 222.02 82.5 45.2 83.17 45.2 211.71 221.71"/><polygon class="cls-14" points="211.28 222.02 210.84 222.34 81.84 45.2 82.5 45.2 211.28 222.02"/><polygon class="cls-15" points="210.84 222.34 210.41 222.66 81.17 45.2 81.84 45.2 210.84 222.34"/><polygon class="cls-16" points="210.41 222.66 209.97 222.97 80.51 45.2 81.17 45.2 210.41 222.66"/><polygon class="cls-17" points="209.97 222.97 209.54 223.29 79.85 45.2 80.51 45.2 209.97 222.97"/><polygon class="cls-18" points="209.54 223.29 209.11 223.6 79.18 45.2 79.85 45.2 209.54 223.29"/><polygon class="cls-19" points="209.11 223.6 208.67 223.92 78.52 45.2 79.18 45.2 209.11 223.6"/><polygon class="cls-20" points="208.67 223.92 208.24 224.24 77.86 45.2 78.52 45.2 208.67 223.92"/><polygon class="cls-21" points="208.24 224.24 207.81 224.55 77.19 45.2 77.86 45.2 208.24 224.24"/><polygon class="cls-22" points="207.81 224.55 207.37 224.87 76.53 45.2 77.19 45.2 207.81 224.55"/><polygon class="cls-23" points="207.37 224.87 206.94 225.18 75.86 45.2 76.53 45.2 207.37 224.87"/><polygon class="cls-24" points="206.94 225.18 206.5 225.5 75.2 45.2 75.86 45.2 206.94 225.18"/><polygon class="cls-25" points="206.5 225.5 206.07 225.81 74.54 45.2 75.2 45.2 206.5 225.5"/><polygon class="cls-26" points="206.07 225.81 205.64 226.13 73.87 45.2 74.54 45.2 206.07 225.81"/><polygon class="cls-27" points="205.64 226.13 205.2 226.45 73.21 45.2 73.87 45.2 205.64 226.13"/><polygon class="cls-28" points="205.2 226.45 204.77 226.76 72.55 45.2 73.21 45.2 205.2 226.45"/><polygon class="cls-29" points="204.77 226.76 204.34 227.08 71.88 45.2 72.55 45.2 204.77 226.76"/><polygon class="cls-30" points="204.34 227.08 203.9 227.39 71.22 45.2 71.88 45.2 204.34 227.08"/><polygon class="cls-31" points="203.9 227.39 203.47 227.71 70.56 45.2 71.22 45.2 203.9 227.39"/><polygon class="cls-32" points="203.47 227.71 203.03 228.03 69.89 45.2 70.56 45.2 203.47 227.71"/><polygon class="cls-33" points="203.03 228.03 202.6 228.34 69.23 45.2 69.89 45.2 203.03 228.03"/><polygon class="cls-34" points="202.6 228.34 202.17 228.66 68.56 45.2 69.23 45.2 202.6 228.34"/><polygon class="cls-35" points="202.17 228.66 201.73 228.97 67.9 45.2 68.56 45.2 202.17 228.66"/><polygon class="cls-36" points="201.73 228.97 201.3 229.29 67.24 45.2 67.9 45.2 201.73 228.97"/><polygon class="cls-37" points="201.3 229.29 200.87 229.6 66.57 45.2 67.24 45.2 201.3 229.29"/><polygon class="cls-38" points="200.87 229.6 200.43 229.92 65.91 45.2 66.57 45.2 200.87 229.6"/><polygon class="cls-39" points="200.43 229.92 200 230.24 65.25 45.2 65.91 45.2 200.43 229.92"/><polygon class="cls-40" points="200 230.24 199.57 230.55 64.58 45.2 65.25 45.2 200 230.24"/><polygon class="cls-41" points="199.57 230.55 199.13 230.87 63.92 45.2 64.58 45.2 199.57 230.55"/><polygon class="cls-42" points="199.13 230.87 198.7 231.18 63.26 45.2 63.92 45.2 199.13 230.87"/><polygon class="cls-43" points="198.7 231.18 198.26 231.5 62.59 45.2 63.26 45.2 198.7 231.18"/><polygon class="cls-44" points="198.26 231.5 197.83 231.81 61.93 45.2 62.59 45.2 198.26 231.5"/><polygon class="cls-45" points="197.83 231.81 197.4 232.13 61.26 45.2 61.93 45.2 197.83 231.81"/><polygon class="cls-46" points="197.4 232.13 196.96 232.45 60.6 45.2 61.26 45.2 197.4 232.13"/><polygon class="cls-47" points="196.96 232.45 196.53 232.76 59.94 45.2 60.6 45.2 196.96 232.45"/><polygon class="cls-48" points="196.53 232.76 196.1 233.08 59.27 45.2 59.94 45.2 196.53 232.76"/><polygon class="cls-49" points="196.1 233.08 195.66 233.39 58.61 45.2 59.27 45.2 196.1 233.08"/><polygon class="cls-50" points="195.66 233.39 195.23 233.71 57.95 45.2 58.61 45.2 195.66 233.39"/><polygon class="cls-51" points="195.23 233.71 194.8 234.03 57.28 45.2 57.95 45.2 195.23 233.71"/><polygon class="cls-52" points="194.8 234.03 194.36 234.34 56.62 45.2 57.28 45.2 194.8 234.03"/><polygon class="cls-53" points="194.36 234.34 193.93 234.66 55.95 45.2 56.62 45.2 194.36 234.34"/><polygon class="cls-54" points="193.93 234.66 193.5 234.97 55.29 45.2 55.95 45.2 193.93 234.66"/><polygon class="cls-55" points="193.5 234.97 193.06 235.29 54.63 45.2 55.29 45.2 193.5 234.97"/><polygon class="cls-56" points="193.06 235.29 192.63 235.6 53.96 45.2 54.63 45.2 193.06 235.29"/><polygon class="cls-57" points="192.63 235.6 192.19 235.92 53.3 45.2 53.96 45.2 192.63 235.6"/><polygon class="cls-58" points="192.19 235.92 191.76 236.24 52.64 45.2 53.3 45.2 192.19 235.92"/><polygon class="cls-59" points="191.76 236.24 191.33 236.55 51.97 45.2 52.64 45.2 191.76 236.24"/><polygon class="cls-60" points="191.33 236.55 190.89 236.87 51.31 45.2 51.97 45.2 191.33 236.55"/><polygon class="cls-61" points="190.89 236.87 190.46 237.18 50.65 45.2 51.31 45.2 190.89 236.87"/><polygon class="cls-62" points="190.46 237.18 190.03 237.5 49.98 45.2 50.65 45.2 190.46 237.18"/><polygon class="cls-63" points="190.03 237.5 189.59 237.81 49.32 45.2 49.98 45.2 190.03 237.5"/><polygon class="cls-64" points="189.59 237.81 189.16 238.13 48.65 45.2 49.32 45.2 189.59 237.81"/><polygon class="cls-65" points="189.16 238.13 188.72 238.45 47.99 45.2 48.65 45.2 189.16 238.13"/><polygon class="cls-66" points="188.72 238.45 188.29 238.76 47.33 45.2 47.99 45.2 188.72 238.45"/><polygon class="cls-67" points="188.29 238.76 187.86 239.08 46.66 45.2 47.33 45.2 188.29 238.76"/><polygon class="cls-68" points="187.86 239.08 187.42 239.4 46.11 45.36 46.33 45.2 46.66 45.2 187.86 239.08"/><rect class="cls-69" x="116.28" y="20.1" width="0.54" height="240.04" transform="translate(-60.15 97.88) rotate(-36.06)"/><rect class="cls-70" x="115.85" y="20.42" width="0.54" height="240.04" transform="translate(-60.42 97.68) rotate(-36.06)"/><rect class="cls-71" x="115.42" y="20.73" width="0.54" height="240.04" transform="translate(-60.69 97.49) rotate(-36.06)"/><rect class="cls-72" x="114.98" y="21.05" width="0.54" height="240.04" transform="translate(-60.96 97.29) rotate(-36.06)"/><rect class="cls-73" x="114.55" y="21.37" width="0.54" height="240.04" transform="translate(-61.23 97.1) rotate(-36.06)"/><rect class="cls-74" x="114.11" y="21.68" width="0.54" height="240.04" transform="translate(-61.5 96.9) rotate(-36.06)"/><rect class="cls-75" x="113.68" y="22" width="0.54" height="240.04" transform="translate(-61.77 96.71) rotate(-36.06)"/><polygon class="cls-76" points="184.39 241.6 183.95 241.92 42.74 48.02 42.74 47.81 43.08 47.57 184.39 241.6"/><polygon class="cls-77" points="183.95 241.92 183.52 242.24 42.74 48.93 42.74 48.02 183.95 241.92"/><polygon class="cls-78" points="183.52 242.24 183.09 242.55 42.74 49.84 42.74 48.93 183.52 242.24"/><polygon class="cls-79" points="183.09 242.55 182.65 242.87 42.74 50.75 42.74 49.84 183.09 242.55"/><polygon class="cls-80" points="182.65 242.87 182.22 243.18 42.74 51.66 42.74 50.75 182.65 242.87"/><polygon class="cls-81" points="182.22 243.18 181.79 243.5 42.74 52.58 42.74 51.66 182.22 243.18"/><polygon class="cls-82" points="181.79 243.5 181.35 243.82 42.74 53.49 42.74 52.58 181.79 243.5"/><polygon class="cls-83" points="181.35 243.82 180.92 244.13 42.74 54.4 42.74 53.49 181.35 243.82"/><polygon class="cls-84" points="180.92 244.13 180.49 244.45 42.74 55.31 42.74 54.4 180.92 244.13"/><polygon class="cls-85" points="180.49 244.45 180.05 244.76 42.74 56.22 42.74 55.31 180.49 244.45"/><polygon class="cls-86" points="180.05 244.76 179.62 245.08 42.74 57.13 42.74 56.22 180.05 244.76"/><polygon class="cls-87" points="179.62 245.08 179.18 245.4 42.74 58.04 42.74 57.13 179.62 245.08"/><polygon class="cls-88" points="179.18 245.4 178.75 245.71 42.74 58.95 42.74 58.04 179.18 245.4"/><polygon class="cls-89" points="178.75 245.71 178.32 246.03 42.74 59.87 42.74 58.95 178.75 245.71"/><polygon class="cls-90" points="178.32 246.03 177.88 246.34 42.74 60.78 42.74 59.87 178.32 246.03"/><polygon class="cls-91" points="177.88 246.34 177.45 246.66 42.74 61.69 42.74 60.78 177.88 246.34"/><polygon class="cls-92" points="177.45 246.66 177.01 246.97 42.74 62.6 42.74 61.69 177.45 246.66"/><polygon class="cls-93" points="177.01 246.97 176.58 247.29 42.74 63.51 42.74 62.6 177.01 246.97"/><polygon class="cls-94" points="176.58 247.29 176.15 247.61 42.74 64.42 42.74 63.51 176.58 247.29"/><polygon class="cls-95" points="176.15 247.61 175.71 247.92 42.74 65.33 42.74 64.42 176.15 247.61"/><polygon class="cls-96" points="175.71 247.92 175.28 248.24 42.74 66.25 42.74 65.33 175.71 247.92"/><polygon class="cls-97" points="175.28 248.24 174.85 248.55 42.74 67.16 42.74 66.25 175.28 248.24"/><polygon class="cls-98" points="174.85 248.55 174.41 248.87 42.74 68.07 42.74 67.16 174.85 248.55"/><polygon class="cls-99" points="174.41 248.87 173.98 249.19 42.74 68.98 42.74 68.07 174.41 248.87"/><polygon class="cls-100" points="173.98 249.19 173.55 249.5 42.74 69.89 42.74 68.98 173.98 249.19"/><polygon class="cls-101" points="173.55 249.5 173.11 249.82 42.74 70.8 42.74 69.89 173.55 249.5"/><polygon class="cls-102" points="173.11 249.82 172.68 250.13 42.74 71.71 42.74 70.8 173.11 249.82"/><polygon class="cls-103" points="172.68 250.13 172.25 250.45 42.74 72.63 42.74 71.71 172.68 250.13"/><polygon class="cls-104" points="172.25 250.45 171.81 250.76 42.74 73.54 42.74 72.63 172.25 250.45"/><polygon class="cls-105" points="171.81 250.76 171.38 251.08 42.74 74.45 42.74 73.54 171.81 250.76"/><polygon class="cls-106" points="171.38 251.08 170.94 251.4 42.74 75.36 42.74 74.45 171.38 251.08"/><polygon class="cls-107" points="170.94 251.4 170.51 251.71 42.74 76.27 42.74 75.36 170.94 251.4"/><polygon class="cls-108" points="170.51 251.71 170.08 252.03 42.74 77.18 42.74 76.27 170.51 251.71"/><polygon class="cls-109" points="170.08 252.03 169.64 252.34 42.74 78.09 42.74 77.18 170.08 252.03"/><polygon class="cls-110" points="169.64 252.34 169.21 252.66 42.74 79 42.74 78.09 169.64 252.34"/><polygon class="cls-111" points="169.21 252.66 168.78 252.97 42.74 79.92 42.74 79 169.21 252.66"/><polygon class="cls-112" points="168.78 252.97 168.34 253.29 42.74 80.83 42.74 79.92 168.78 252.97"/><polygon class="cls-113" points="168.34 253.29 167.91 253.61 42.74 81.74 42.74 80.83 168.34 253.29"/><polygon class="cls-114" points="167.91 253.61 167.47 253.92 42.74 82.65 42.74 81.74 167.91 253.61"/><polygon class="cls-115" points="167.47 253.92 167.04 254.24 42.74 83.56 42.74 82.65 167.47 253.92"/><polygon class="cls-116" points="167.04 254.24 166.61 254.55 42.74 84.47 42.74 83.56 167.04 254.24"/><polygon class="cls-117" points="166.61 254.55 166.17 254.87 42.74 85.38 42.74 84.47 166.61 254.55"/><polygon class="cls-118" points="166.17 254.87 165.74 255.19 42.74 86.29 42.74 85.38 166.17 254.87"/><polygon class="cls-119" points="165.74 255.19 165.31 255.5 42.74 87.21 42.74 86.29 165.74 255.19"/><polygon class="cls-120" points="165.31 255.5 164.87 255.82 42.74 88.12 42.74 87.21 165.31 255.5"/><polygon class="cls-121" points="164.87 255.82 164.44 256.13 42.74 89.03 42.74 88.12 164.87 255.82"/><polygon class="cls-122" points="164.44 256.13 164 256.45 42.74 89.94 42.74 89.03 164.44 256.13"/><polygon class="cls-123" points="164 256.45 163.57 256.76 42.74 90.85 42.74 89.94 164 256.45"/><polygon class="cls-124" points="163.57 256.76 163.14 257.08 42.74 91.76 42.74 90.85 163.57 256.76"/><polygon class="cls-125" points="163.14 257.08 162.7 257.4 42.74 92.67 42.74 91.76 163.14 257.08"/><polygon class="cls-126" points="162.7 257.4 162.27 257.71 42.74 93.58 42.74 92.67 162.7 257.4"/><polygon class="cls-127" points="162.27 257.71 161.84 258.03 42.74 94.5 42.74 93.58 162.27 257.71"/><polygon class="cls-128" points="161.84 258.03 161.4 258.34 42.74 95.41 42.74 94.5 161.84 258.03"/><polygon class="cls-129" points="161.4 258.34 160.97 258.66 42.74 96.32 42.74 95.41 161.4 258.34"/><polygon class="cls-130" points="160.97 258.66 160.54 258.98 42.74 97.23 42.74 96.32 160.97 258.66"/><polygon class="cls-131" points="160.54 258.98 160.1 259.29 42.74 98.14 42.74 97.23 160.54 258.98"/><polygon class="cls-132" points="160.1 259.29 159.67 259.61 42.74 99.05 42.74 98.14 160.1 259.29"/><polygon class="cls-133" points="159.67 259.61 159.24 259.92 42.74 99.96 42.74 99.05 159.67 259.61"/><polygon class="cls-134" points="159.24 259.92 158.8 260.24 42.74 100.88 42.74 99.96 159.24 259.92"/><polygon class="cls-135" points="158.8 260.24 158.37 260.56 42.74 101.79 42.74 100.88 158.8 260.24"/><polygon class="cls-136" points="158.37 260.56 157.93 260.87 42.74 102.7 42.74 101.79 158.37 260.56"/><polygon class="cls-137" points="157.93 260.87 157.5 261.19 42.74 103.61 42.74 102.7 157.93 260.87"/><polygon class="cls-138" points="157.5 261.19 157.07 261.5 42.74 104.52 42.74 103.61 157.5 261.19"/><polygon class="cls-139" points="157.07 261.5 156.63 261.82 42.74 105.43 42.74 104.52 157.07 261.5"/><polygon class="cls-140" points="156.63 261.82 156.2 262.13 42.74 106.34 42.74 105.43 156.63 261.82"/><polygon class="cls-141" points="156.2 262.13 155.77 262.45 42.74 107.25 42.74 106.34 156.2 262.13"/><polygon class="cls-142" points="155.77 262.45 155.33 262.76 42.74 108.17 42.74 107.25 155.77 262.45"/><polygon class="cls-143" points="155.33 262.76 154.9 263.08 42.74 109.08 42.74 108.17 155.33 262.76"/><polygon class="cls-144" points="154.9 263.08 154.47 263.4 42.74 109.99 42.74 109.08 154.9 263.08"/><polygon class="cls-145" points="154.47 263.4 154.03 263.71 42.74 110.9 42.74 109.99 154.47 263.4"/><polygon class="cls-146" points="154.03 263.71 153.6 264.03 42.74 111.81 42.74 110.9 154.03 263.71"/><polygon class="cls-147" points="153.6 264.03 153.16 264.34 42.74 112.72 42.74 111.81 153.6 264.03"/><polygon class="cls-148" points="153.16 264.34 152.73 264.66 42.74 113.63 42.74 112.72 153.16 264.34"/><polygon class="cls-149" points="152.73 264.66 152.3 264.98 42.74 114.55 42.74 113.63 152.73 264.66"/><polygon class="cls-150" points="152.3 264.98 151.86 265.29 42.74 115.46 42.74 114.55 152.3 264.98"/><polygon class="cls-151" points="151.86 265.29 151.43 265.61 42.74 116.37 42.74 115.46 151.86 265.29"/><polygon class="cls-152" points="151.43 265.61 151 265.92 42.74 117.28 42.74 116.37 151.43 265.61"/><polygon class="cls-153" points="151 265.92 150.56 266.24 42.74 118.19 42.74 117.28 151 265.92"/><polygon class="cls-154" points="150.56 266.24 150.13 266.56 42.74 119.1 42.74 118.19 150.56 266.24"/><polygon class="cls-155" points="150.13 266.56 149.69 266.87 42.74 120.01 42.74 119.1 150.13 266.56"/><polygon class="cls-156" points="149.69 266.87 149.26 267.19 42.74 120.92 42.74 120.01 149.69 266.87"/><polygon class="cls-157" points="149.26 267.19 148.83 267.5 42.74 121.83 42.74 120.92 149.26 267.19"/><polygon class="cls-158" points="148.83 267.5 148.39 267.82 42.74 122.75 42.74 121.83 148.83 267.5"/><polygon class="cls-159" points="148.39 267.82 147.96 268.13 42.74 123.66 42.74 122.75 148.39 267.82"/><polygon class="cls-160" points="147.96 268.13 147.53 268.45 42.74 124.57 42.74 123.66 147.96 268.13"/><polygon class="cls-161" points="147.53 268.45 147.09 268.77 42.74 125.48 42.74 124.57 147.53 268.45"/><polygon class="cls-162" points="147.09 268.77 146.66 269.08 42.74 126.39 42.74 125.48 147.09 268.77"/><polygon class="cls-163" points="146.66 269.08 146.22 269.4 42.74 127.3 42.74 126.39 146.66 269.08"/><polygon class="cls-164" points="146.22 269.4 145.79 269.71 42.74 128.21 42.74 127.3 146.22 269.4"/><polygon class="cls-165" points="145.79 269.71 145.36 270.03 42.74 129.13 42.74 128.21 145.79 269.71"/><polygon class="cls-166" points="145.36 270.03 144.92 270.35 42.74 130.04 42.74 129.13 145.36 270.03"/><polygon class="cls-167" points="144.92 270.35 144.49 270.66 42.74 130.95 42.74 130.04 144.92 270.35"/><polygon class="cls-168" points="144.49 270.66 144.06 270.98 42.74 131.86 42.74 130.95 144.49 270.66"/><polygon class="cls-169" points="144.06 270.98 143.62 271.29 42.74 132.77 42.74 131.86 144.06 270.98"/><polygon class="cls-170" points="143.62 271.29 143.19 271.61 42.74 133.68 42.74 132.77 143.62 271.29"/><polygon class="cls-171" points="143.19 271.61 142.76 271.92 42.74 134.59 42.74 133.68 143.19 271.61"/><polygon class="cls-172" points="142.76 271.92 142.32 272.24 42.74 135.5 42.74 134.59 142.76 271.92"/><polygon class="cls-173" points="142.32 272.24 141.89 272.56 42.74 136.42 42.74 135.5 142.32 272.24"/><polygon class="cls-174" points="141.89 272.56 141.46 272.87 42.74 137.33 42.74 136.42 141.89 272.56"/><polygon class="cls-175" points="141.46 272.87 141.02 273.19 42.74 138.24 42.74 137.33 141.46 272.87"/><polygon class="cls-176" points="141.02 273.19 140.59 273.5 42.74 139.15 42.74 138.24 141.02 273.19"/><polygon class="cls-177" points="140.59 273.5 140.15 273.82 42.74 140.06 42.74 139.15 140.59 273.5"/><polygon class="cls-178" points="140.15 273.82 139.72 274.13 42.74 140.97 42.74 140.06 140.15 273.82"/><polygon class="cls-179" points="139.72 274.13 139.29 274.45 42.74 141.88 42.74 140.97 139.72 274.13"/><polygon class="cls-180" points="139.29 274.45 138.85 274.77 42.74 142.79 42.74 141.88 139.29 274.45"/><polygon class="cls-181" points="138.85 274.77 138.42 275.08 42.74 143.71 42.74 142.79 138.85 274.77"/><polygon class="cls-182" points="138.42 275.08 137.99 275.4 42.74 144.62 42.74 143.71 138.42 275.08"/><polygon class="cls-183" points="137.99 275.4 137.55 275.71 42.74 145.53 42.74 144.62 137.99 275.4"/><polygon class="cls-184" points="137.55 275.71 137.12 276.03 42.74 146.44 42.74 145.53 137.55 275.71"/><polygon class="cls-185" points="137.12 276.03 136.68 276.35 42.74 147.35 42.74 146.44 137.12 276.03"/><polygon class="cls-186" points="136.68 276.35 136.25 276.66 42.74 148.26 42.74 147.35 136.68 276.35"/><polygon class="cls-187" points="136.25 276.66 135.82 276.98 42.74 149.17 42.74 148.26 136.25 276.66"/><polygon class="cls-188" points="135.82 276.98 135.38 277.29 42.74 150.09 42.74 149.17 135.82 276.98"/><polygon class="cls-188" points="135.38 277.29 101.3 302.12 42.74 302.12 42.74 150.09 135.38 277.29"/><polygon class="cls-4" points="309.63 204.78 241.49 254.4 56.22 0 309.63 0 309.63 204.78"/><polygon class="cls-4" points="241.49 254.4 241.06 254.72 55.56 0 56.22 0 241.49 254.4"/><polygon class="cls-5" points="241.06 254.72 240.62 255.03 54.89 0 55.56 0 241.06 254.72"/><polygon class="cls-6" points="240.62 255.03 240.19 255.35 54.23 0 54.89 0 240.62 255.03"/><polygon class="cls-7" points="240.19 255.35 239.75 255.66 53.56 0 54.23 0 240.19 255.35"/><polygon class="cls-8" points="239.75 255.66 239.32 255.98 52.9 0 53.56 0 239.75 255.66"/><polygon class="cls-9" points="239.32 255.98 238.89 256.3 52.24 0 52.9 0 239.32 255.98"/><polygon class="cls-10" points="238.89 256.3 238.45 256.61 51.57 0 52.24 0 238.89 256.3"/><polygon class="cls-11" points="238.45 256.61 238.02 256.93 50.91 0 51.57 0 238.45 256.61"/><polygon class="cls-12" points="238.02 256.93 237.59 257.24 50.25 0 50.91 0 238.02 256.93"/><polygon class="cls-13" points="237.59 257.24 237.15 257.56 49.58 0 50.25 0 237.59 257.24"/><polygon class="cls-14" points="237.15 257.56 236.72 257.88 48.92 0 49.58 0 237.15 257.56"/><polygon class="cls-15" points="236.72 257.88 236.29 258.19 48.26 0 48.92 0 236.72 257.88"/><polygon class="cls-16" points="236.29 258.19 235.85 258.51 47.59 0 48.26 0 236.29 258.19"/><polygon class="cls-17" points="235.85 258.51 235.42 258.82 46.93 0 47.59 0 235.85 258.51"/><polygon class="cls-18" points="235.42 258.82 234.99 259.14 46.27 0 46.93 0 235.42 258.82"/><polygon class="cls-19" points="234.99 259.14 234.55 259.45 45.6 0 46.27 0 234.99 259.14"/><polygon class="cls-20" points="234.55 259.45 234.12 259.77 44.94 0 45.6 0 234.55 259.45"/><polygon class="cls-21" points="234.12 259.77 233.68 260.08 44.27 0 44.94 0 234.12 259.77"/><polygon class="cls-22" points="233.68 260.08 233.25 260.4 43.61 0 44.27 0 233.68 260.08"/><polygon class="cls-23" points="233.25 260.4 232.82 260.72 42.95 0 43.61 0 233.25 260.4"/><polygon class="cls-24" points="232.82 260.72 232.38 261.03 42.28 0 42.95 0 232.82 260.72"/><polygon class="cls-25" points="232.38 261.03 231.95 261.35 41.62 0 42.28 0 232.38 261.03"/><polygon class="cls-26" points="231.95 261.35 231.52 261.66 40.96 0 41.62 0 231.95 261.35"/><polygon class="cls-27" points="231.52 261.66 231.08 261.98 40.29 0 40.96 0 231.52 261.66"/><polygon class="cls-28" points="231.08 261.98 230.65 262.3 39.63 0 40.29 0 231.08 261.98"/><polygon class="cls-29" points="230.65 262.3 230.22 262.61 38.97 0 39.63 0 230.65 262.3"/><polygon class="cls-30" points="230.22 262.61 229.78 262.93 38.3 0 38.97 0 230.22 262.61"/><polygon class="cls-31" points="229.78 262.93 229.35 263.24 37.64 0 38.3 0 229.78 262.93"/><polygon class="cls-32" points="229.35 263.24 228.91 263.56 36.97 0 37.64 0 229.35 263.24"/><polygon class="cls-33" points="228.91 263.56 228.48 263.88 36.31 0 36.97 0 228.91 263.56"/><polygon class="cls-34" points="228.48 263.88 228.05 264.19 35.65 0 36.31 0 228.48 263.88"/><polygon class="cls-35" points="228.05 264.19 227.61 264.51 34.98 0 35.65 0 228.05 264.19"/><polygon class="cls-36" points="227.61 264.51 227.18 264.82 34.32 0 34.98 0 227.61 264.51"/><polygon class="cls-37" points="227.18 264.82 226.75 265.14 33.66 0 34.32 0 227.18 264.82"/><polygon class="cls-38" points="226.75 265.14 226.31 265.45 33.01 0.03 33.06 0 33.66 0 226.75 265.14"/><rect class="cls-39" x="129.18" y="-33.68" width="0.54" height="328.35" transform="translate(-52.01 103.62) rotate(-36.06)"/><rect class="cls-40" x="128.74" y="-33.37" width="0.54" height="328.35" transform="translate(-52.28 103.43) rotate(-36.06)"/><rect class="cls-41" x="128.31" y="-33.05" width="0.54" height="328.35" transform="translate(-52.55 103.23) rotate(-36.06)"/><rect class="cls-42" x="127.88" y="-32.74" width="0.54" height="328.35" transform="translate(-52.82 103.04) rotate(-36.06)"/><rect class="cls-43" x="127.44" y="-32.42" width="0.54" height="328.35" transform="translate(-53.09 102.84) rotate(-36.06)"/><rect class="cls-44" x="127.01" y="-32.11" width="0.54" height="328.35" transform="translate(-53.36 102.65) rotate(-36.06)"/><rect class="cls-45" x="126.58" y="-31.79" width="0.54" height="328.35" transform="translate(-53.63 102.45) rotate(-36.06)"/><rect class="cls-46" x="126.14" y="-31.47" width="0.54" height="328.35" transform="translate(-53.89 102.26) rotate(-36.06)"/><rect class="cls-47" x="125.71" y="-31.16" width="0.54" height="328.35" transform="translate(-54.16 102.06) rotate(-36.06)"/><rect class="cls-48" x="125.27" y="-30.84" width="0.54" height="328.35" transform="translate(-54.43 101.87) rotate(-36.06)"/><rect class="cls-49" x="124.84" y="-30.53" width="0.54" height="328.35" transform="translate(-54.7 101.67) rotate(-36.06)"/><rect class="cls-50" x="124.41" y="-30.21" width="0.54" height="328.35" transform="translate(-54.97 101.48) rotate(-36.06)"/><rect class="cls-51" x="123.97" y="-29.89" width="0.54" height="328.35" transform="translate(-55.24 101.28) rotate(-36.06)"/><rect class="cls-52" x="123.54" y="-29.58" width="0.54" height="328.35" transform="translate(-55.51 101.09) rotate(-36.06)"/><rect class="cls-53" x="123.11" y="-29.26" width="0.54" height="328.35" transform="translate(-55.78 100.9) rotate(-36.06)"/><rect class="cls-54" x="122.67" y="-28.95" width="0.54" height="328.35" transform="translate(-56.05 100.7) rotate(-36.06)"/><rect class="cls-55" x="122.24" y="-28.63" width="0.54" height="328.35" transform="translate(-56.32 100.51) rotate(-36.06)"/><rect class="cls-56" x="121.81" y="-28.32" width="0.54" height="328.35" transform="translate(-56.58 100.31) rotate(-36.06)"/><rect class="cls-57" x="121.37" y="-28" width="0.54" height="328.35" transform="translate(-56.85 100.12) rotate(-36.06)"/><rect class="cls-58" x="120.94" y="-27.68" width="0.54" height="328.35" transform="translate(-57.12 99.92) rotate(-36.06)"/><rect class="cls-59" x="120.5" y="-27.37" width="0.54" height="328.35" transform="translate(-57.39 99.73) rotate(-36.06)"/><rect class="cls-60" x="120.07" y="-27.05" width="0.54" height="328.35" transform="translate(-57.66 99.53) rotate(-36.06)"/><rect class="cls-61" x="119.64" y="-26.74" width="0.54" height="328.35" transform="translate(-57.93 99.34) rotate(-36.06)"/><rect class="cls-62" x="119.2" y="-26.42" width="0.54" height="328.35" transform="translate(-58.2 99.14) rotate(-36.06)"/><rect class="cls-63" x="118.77" y="-26.11" width="0.54" height="328.35" transform="translate(-58.47 98.95) rotate(-36.06)"/><rect class="cls-64" x="118.34" y="-25.79" width="0.54" height="328.35" transform="translate(-58.74 98.75) rotate(-36.06)"/><rect class="cls-65" x="117.9" y="-25.47" width="0.54" height="328.35" transform="translate(-59.01 98.56) rotate(-36.06)"/><rect class="cls-66" x="117.47" y="-25.16" width="0.54" height="328.35" transform="translate(-59.28 98.36) rotate(-36.06)"/><rect class="cls-67" x="117.04" y="-24.84" width="0.54" height="328.35" transform="translate(-59.54 98.17) rotate(-36.06)"/><rect class="cls-68" x="116.6" y="-24.53" width="0.54" height="328.35" transform="translate(-59.81 97.97) rotate(-36.06)"/><rect class="cls-69" x="116.17" y="-24.21" width="0.54" height="328.35" transform="translate(-60.08 97.78) rotate(-36.06)"/><rect class="cls-70" x="115.73" y="-23.89" width="0.54" height="328.35" transform="translate(-60.35 97.58) rotate(-36.06)"/><rect class="cls-71" x="115.3" y="-23.58" width="0.54" height="328.35" transform="translate(-60.62 97.39) rotate(-36.06)"/><rect class="cls-72" x="114.87" y="-23.26" width="0.54" height="328.35" transform="translate(-60.89 97.19) rotate(-36.06)"/><rect class="cls-73" x="114.43" y="-22.95" width="0.54" height="328.35" transform="translate(-61.16 97) rotate(-36.06)"/><rect class="cls-74" x="114" y="-22.63" width="0.54" height="328.35" transform="translate(-61.43 96.8) rotate(-36.06)"/><rect class="cls-75" x="113.57" y="-22.32" width="0.54" height="328.35" transform="translate(-61.7 96.61) rotate(-36.06)"/><rect class="cls-76" x="113.13" y="-22" width="0.54" height="328.35" transform="translate(-61.97 96.42) rotate(-36.06)"/><rect class="cls-77" x="112.7" y="-21.68" width="0.54" height="328.35" transform="translate(-62.23 96.22) rotate(-36.06)"/><rect class="cls-78" x="112.26" y="-21.37" width="0.54" height="328.35" transform="translate(-62.5 96.03) rotate(-36.06)"/><rect class="cls-79" x="111.83" y="-21.05" width="0.54" height="328.35" transform="translate(-62.77 95.83) rotate(-36.06)"/><rect class="cls-80" x="111.4" y="-20.74" width="0.54" height="328.35" transform="translate(-63.04 95.64) rotate(-36.06)"/><rect class="cls-81" x="110.96" y="-20.42" width="0.54" height="328.35" transform="translate(-63.31 95.44) rotate(-36.06)"/><rect class="cls-82" x="110.53" y="-20.1" width="0.54" height="328.35" transform="translate(-63.58 95.25) rotate(-36.06)"/><rect class="cls-83" x="110.1" y="-19.79" width="0.54" height="328.35" transform="translate(-63.85 95.05) rotate(-36.06)"/><rect class="cls-84" x="109.66" y="-19.47" width="0.54" height="328.35" transform="translate(-64.12 94.86) rotate(-36.06)"/><rect class="cls-85" x="109.23" y="-19.16" width="0.54" height="328.35" transform="translate(-64.39 94.66) rotate(-36.06)"/><rect class="cls-86" x="108.8" y="-18.84" width="0.54" height="328.35" transform="translate(-64.66 94.47) rotate(-36.06)"/><rect class="cls-87" x="108.36" y="-18.53" width="0.54" height="328.35" transform="translate(-64.92 94.27) rotate(-36.06)"/><rect class="cls-88" x="107.93" y="-18.21" width="0.54" height="328.35" transform="translate(-65.19 94.08) rotate(-36.06)"/><rect class="cls-89" x="107.49" y="-17.89" width="0.54" height="328.35" transform="translate(-65.46 93.88) rotate(-36.06)"/><rect class="cls-90" x="107.06" y="-17.58" width="0.54" height="328.35" transform="translate(-65.73 93.69) rotate(-36.06)"/><rect class="cls-91" x="106.63" y="-17.26" width="0.54" height="328.35" transform="translate(-66 93.49) rotate(-36.06)"/><rect class="cls-92" x="106.19" y="-16.95" width="0.54" height="328.35" transform="translate(-66.27 93.3) rotate(-36.06)"/><rect class="cls-93" x="105.76" y="-16.63" width="0.54" height="328.35" transform="translate(-66.54 93.1) rotate(-36.06)"/><rect class="cls-94" x="105.33" y="-16.31" width="0.54" height="328.35" transform="translate(-66.81 92.91) rotate(-36.06)"/><rect class="cls-95" x="104.89" y="-16" width="0.54" height="328.35" transform="translate(-67.08 92.71) rotate(-36.06)"/><rect class="cls-96" x="104.46" y="-15.68" width="0.54" height="328.35" transform="translate(-67.35 92.52) rotate(-36.06)"/><rect class="cls-97" x="104.03" y="-15.37" width="0.54" height="328.35" transform="translate(-67.62 92.33) rotate(-36.06)"/><rect class="cls-98" x="103.59" y="-15.05" width="0.54" height="328.35" transform="translate(-67.88 92.13) rotate(-36.06)"/><rect class="cls-99" x="103.16" y="-14.74" width="0.54" height="328.35" transform="translate(-68.15 91.94) rotate(-36.06)"/><rect class="cls-100" x="102.72" y="-14.42" width="0.54" height="328.35" transform="translate(-68.42 91.74) rotate(-36.06)"/><rect class="cls-101" x="102.29" y="-14.1" width="0.54" height="328.35" transform="translate(-68.69 91.55) rotate(-36.06)"/><rect class="cls-102" x="101.86" y="-13.79" width="0.54" height="328.35" transform="translate(-68.96 91.35) rotate(-36.06)"/><rect class="cls-103" x="101.42" y="-13.47" width="0.54" height="328.35" transform="translate(-69.23 91.16) rotate(-36.06)"/><rect class="cls-104" x="100.99" y="-13.16" width="0.54" height="328.35" transform="translate(-69.5 90.96) rotate(-36.06)"/><rect class="cls-105" x="100.56" y="-12.84" width="0.54" height="328.35" transform="translate(-69.77 90.77) rotate(-36.06)"/><rect class="cls-106" x="100.12" y="-12.52" width="0.54" height="328.35" transform="translate(-70.04 90.57) rotate(-36.06)"/><rect class="cls-107" x="99.69" y="-12.21" width="0.54" height="328.35" transform="translate(-70.31 90.38) rotate(-36.06)"/><rect class="cls-108" x="99.25" y="-11.89" width="0.54" height="328.35" transform="translate(-70.57 90.18) rotate(-36.06)"/><rect class="cls-109" x="98.82" y="-11.58" width="0.54" height="328.35" transform="translate(-70.84 89.99) rotate(-36.06)"/><rect class="cls-110" x="98.39" y="-11.26" width="0.54" height="328.35" transform="translate(-71.11 89.79) rotate(-36.06)"/><rect class="cls-111" x="97.95" y="-10.95" width="0.54" height="328.35" transform="translate(-71.38 89.6) rotate(-36.06)"/><rect class="cls-112" x="97.52" y="-10.63" width="0.54" height="328.35" transform="translate(-71.65 89.4) rotate(-36.06)"/><rect class="cls-113" x="97.09" y="-10.31" width="0.54" height="328.35" transform="translate(-71.92 89.21) rotate(-36.06)"/><rect class="cls-114" x="96.65" y="-10" width="0.54" height="328.35" transform="translate(-72.19 89.01) rotate(-36.06)"/><polygon class="cls-115" points="193.35 289.46 192.92 289.77 0 24.87 0 24.07 0.06 24.03 193.35 289.46"/><polygon class="cls-116" points="192.92 289.77 192.49 290.09 0 25.78 0 24.87 192.92 289.77"/><polygon class="cls-117" points="192.49 290.09 192.05 290.4 0 26.69 0 25.78 192.49 290.09"/><polygon class="cls-118" points="192.05 290.4 191.62 290.72 0 27.6 0 26.69 192.05 290.4"/><polygon class="cls-119" points="191.62 290.72 191.19 291.04 0 28.51 0 27.6 191.62 290.72"/><polygon class="cls-120" points="191.19 291.04 190.75 291.35 0 29.43 0 28.51 191.19 291.04"/><polygon class="cls-121" points="190.75 291.35 190.32 291.67 0 30.34 0 29.43 190.75 291.35"/><polygon class="cls-122" points="190.32 291.67 189.88 291.98 0 31.25 0 30.34 190.32 291.67"/><polygon class="cls-123" points="189.88 291.98 189.45 292.3 0 32.16 0 31.25 189.88 291.98"/><polygon class="cls-124" points="189.45 292.3 189.02 292.62 0 33.07 0 32.16 189.45 292.3"/><polygon class="cls-125" points="189.02 292.62 188.58 292.93 0 33.98 0 33.07 189.02 292.62"/><polygon class="cls-126" points="188.58 292.93 188.15 293.25 0 34.89 0 33.98 188.58 292.93"/><polygon class="cls-127" points="188.15 293.25 187.72 293.56 0 35.8 0 34.89 188.15 293.25"/><polygon class="cls-128" points="187.72 293.56 187.28 293.88 0 36.72 0 35.8 187.72 293.56"/><polygon class="cls-129" points="187.28 293.88 186.85 294.19 0 37.63 0 36.72 187.28 293.88"/><polygon class="cls-130" points="186.85 294.19 186.41 294.51 0 38.54 0 37.63 186.85 294.19"/><polygon class="cls-131" points="186.41 294.51 185.98 294.83 0 39.45 0 38.54 186.41 294.51"/><polygon class="cls-132" points="185.98 294.83 185.55 295.14 0 40.36 0 39.45 185.98 294.83"/><polygon class="cls-133" points="185.55 295.14 185.11 295.46 0 41.27 0 40.36 185.55 295.14"/><polygon class="cls-134" points="185.11 295.46 184.68 295.77 0 42.18 0 41.27 185.11 295.46"/><polygon class="cls-135" points="184.68 295.77 184.25 296.09 0 43.09 0 42.18 184.68 295.77"/><polygon class="cls-136" points="184.25 296.09 183.81 296.4 0 44.01 0 43.09 184.25 296.09"/><polygon class="cls-137" points="183.81 296.4 183.38 296.72 0 44.92 0 44.01 183.81 296.4"/><polygon class="cls-138" points="183.38 296.72 182.94 297.04 0 45.83 0 44.92 183.38 296.72"/><polygon class="cls-139" points="182.94 297.04 182.51 297.35 0 46.74 0 45.83 182.94 297.04"/><polygon class="cls-140" points="182.51 297.35 182.08 297.67 0 47.65 0 46.74 182.51 297.35"/><polygon class="cls-141" points="182.08 297.67 181.64 297.98 0 48.56 0 47.65 182.08 297.67"/><polygon class="cls-142" points="181.64 297.98 181.21 298.3 0 49.47 0 48.56 181.64 297.98"/><polygon class="cls-143" points="181.21 298.3 180.78 298.62 0 50.38 0 49.47 181.21 298.3"/><polygon class="cls-144" points="180.78 298.62 180.34 298.93 0 51.3 0 50.38 180.78 298.62"/><polygon class="cls-145" points="180.34 298.93 179.91 299.25 0 52.21 0 51.3 180.34 298.93"/><polygon class="cls-146" points="179.91 299.25 179.48 299.56 0 53.12 0 52.21 179.91 299.25"/><polygon class="cls-147" points="179.48 299.56 179.04 299.88 0 54.03 0 53.12 179.48 299.56"/><polygon class="cls-148" points="179.04 299.88 178.61 300.19 0 54.94 0 54.03 179.04 299.88"/><polygon class="cls-149" points="178.61 300.19 178.18 300.51 0 55.85 0 54.94 178.61 300.19"/><polygon class="cls-150" points="178.18 300.51 177.74 300.83 0 56.76 0 55.85 178.18 300.51"/><polygon class="cls-151" points="177.74 300.83 177.31 301.14 0 57.67 0 56.76 177.74 300.83"/><polygon class="cls-152" points="177.31 301.14 176.87 301.46 0 58.59 0 57.67 177.31 301.14"/><polygon class="cls-153" points="176.87 301.46 176.44 301.77 0 59.5 0 58.59 176.87 301.46"/><polygon class="cls-154" points="176.44 301.77 176.01 302.09 0 60.41 0 59.5 176.44 301.77"/><polygon class="cls-155" points="176.01 302.09 175.57 302.4 0 61.32 0 60.41 176.01 302.09"/><polygon class="cls-156" points="175.57 302.4 175.14 302.72 0 62.23 0 61.32 175.57 302.4"/><polygon class="cls-157" points="175.14 302.72 174.71 303.04 0 63.14 0 62.23 175.14 302.72"/><polygon class="cls-158" points="174.71 303.04 174.27 303.35 0 64.06 0 63.14 174.71 303.04"/><polygon class="cls-159" points="174.27 303.35 173.84 303.67 0 64.97 0 64.06 174.27 303.35"/><polygon class="cls-160" points="173.84 303.67 173.4 303.99 0 65.88 0 64.97 173.84 303.67"/><polygon class="cls-161" points="173.4 303.99 172.97 304.3 0 66.79 0 65.88 173.4 303.99"/><polygon class="cls-162" points="172.97 304.3 172.54 304.62 0 67.7 0 66.79 172.97 304.3"/><polygon class="cls-163" points="172.54 304.62 172.1 304.93 0 68.61 0 67.7 172.54 304.62"/><polygon class="cls-164" points="172.1 304.93 171.67 305.25 0 69.52 0 68.61 172.1 304.93"/><polygon class="cls-165" points="171.67 305.25 171.24 305.56 0 70.43 0 69.52 171.67 305.25"/><polygon class="cls-166" points="171.24 305.56 170.8 305.88 0 71.34 0 70.43 171.24 305.56"/><polygon class="cls-167" points="170.8 305.88 170.37 306.19 0 72.26 0 71.34 170.8 305.88"/><polygon class="cls-168" points="170.37 306.19 169.94 306.51 0 73.17 0 72.26 170.37 306.19"/><polygon class="cls-169" points="169.94 306.51 169.5 306.83 0 74.08 0 73.17 169.94 306.51"/><polygon class="cls-170" points="169.5 306.83 169.07 307.14 0 74.99 0 74.08 169.5 306.83"/><polygon class="cls-171" points="169.07 307.14 168.63 307.46 0 75.9 0 74.99 169.07 307.14"/><polygon class="cls-172" points="168.63 307.46 168.2 307.77 0 76.81 0 75.9 168.63 307.46"/><polygon class="cls-173" points="168.2 307.77 167.77 308.09 0 77.72 0 76.81 168.2 307.77"/><polygon class="cls-174" points="167.77 308.09 167.33 308.41 0 78.64 0 77.72 167.77 308.09"/><polygon class="cls-175" points="167.33 308.41 166.9 308.72 0 79.55 0 78.64 167.33 308.41"/><polygon class="cls-176" points="166.9 308.72 166.47 309.04 0 80.46 0 79.55 166.9 308.72"/><polygon class="cls-177" points="166.47 309.04 166.03 309.35 0 81.37 0 80.46 166.47 309.04"/><polygon class="cls-178" points="166.03 309.35 165.6 309.67 0 82.28 0 81.37 166.03 309.35"/><polygon class="cls-179" points="165.6 309.67 165.16 309.99 0 83.19 0 82.28 165.6 309.67"/><polygon class="cls-180" points="165.16 309.99 164.73 310.3 0 84.1 0 83.19 165.16 309.99"/><polygon class="cls-181" points="164.73 310.3 164.3 310.62 0 85.01 0 84.1 164.73 310.3"/><polygon class="cls-182" points="164.3 310.62 163.86 310.93 0 85.93 0 85.01 164.3 310.62"/><polygon class="cls-183" points="163.86 310.93 163.43 311.25 0 86.84 0 85.93 163.86 310.93"/><polygon class="cls-184" points="163.43 311.25 163 311.56 0 87.75 0 86.84 163.43 311.25"/><polygon class="cls-185" points="163 311.56 162.56 311.88 0 88.66 0 87.75 163 311.56"/><polygon class="cls-186" points="162.56 311.88 162.13 312.2 0 89.57 0 88.66 162.56 311.88"/><polygon class="cls-187" points="162.13 312.2 161.69 312.51 0 90.48 0 89.57 162.13 312.2"/><polygon class="cls-188" points="161.69 312.51 161.26 312.83 0 91.39 0 90.48 161.69 312.51"/><polygon class="cls-188" points="161.26 312.83 119 343.6 0 343.6 0 91.39 161.26 312.83"/></g><g class="cls-189"><polygon class="cls-190" points="0.3 110.95 0 111.57 0 110.95 0.3 110.95"/><polygon class="cls-191" points="1.45 110.95 0 113.95 0 111.57 0.3 110.95 1.45 110.95"/><polygon class="cls-192" points="2.6 110.95 0 116.33 0 113.95 1.45 110.95 2.6 110.95"/><polygon class="cls-193" points="3.76 110.95 0 118.71 0 116.33 2.6 110.95 3.76 110.95"/><polygon class="cls-194" points="4.59 110.95 4.85 111.07 0 121.09 0 118.71 3.76 110.95 4.59 110.95"/><polygon class="cls-195" points="4.85 111.07 5.78 111.53 0 123.47 0 121.09 4.85 111.07"/><polygon class="cls-196" points="5.78 111.53 6.71 111.98 0 125.85 0 123.47 5.78 111.53"/><polygon class="cls-14" points="6.71 111.98 7.65 112.43 0 128.23 0 125.85 6.71 111.98"/><polygon class="cls-197" points="7.65 112.43 8.58 112.88 0 130.61 0 128.23 7.65 112.43"/><polygon class="cls-198" points="8.58 112.88 9.52 113.33 0 132.99 0 130.61 8.58 112.88"/><polygon class="cls-199" points="9.52 113.33 10.45 113.79 0 135.37 0 132.99 9.52 113.33"/><polygon class="cls-200" points="10.45 113.79 11.38 114.24 0 137.75 0 135.37 10.45 113.79"/><polygon class="cls-201" points="11.38 114.24 12.32 114.69 0 140.13 0 137.75 11.38 114.24"/><polygon class="cls-202" points="12.32 114.69 13.25 115.14 0 142.51 0 140.13 12.32 114.69"/><polygon class="cls-21" points="13.25 115.14 14.18 115.59 0 144.89 0 142.51 13.25 115.14"/><polygon class="cls-203" points="14.18 115.59 15.12 116.05 0 147.27 0 144.89 14.18 115.59"/><polygon class="cls-204" points="15.12 116.05 16.05 116.5 0 149.65 0 147.27 15.12 116.05"/><polygon class="cls-205" points="16.05 116.5 16.98 116.95 0 152.03 0 149.65 16.05 116.5"/><polygon class="cls-206" points="16.98 116.95 17.92 117.4 0 154.41 0 152.03 16.98 116.95"/><polygon class="cls-207" points="17.92 117.4 18.85 117.86 0 156.79 0 154.41 17.92 117.4"/><polygon class="cls-27" points="18.85 117.86 19.79 118.31 0 159.17 0 156.79 18.85 117.86"/><polygon class="cls-208" points="19.79 118.31 20.72 118.76 0 161.55 0 159.17 19.79 118.31"/><polygon class="cls-209" points="20.72 118.76 21.65 119.21 0 163.93 0 161.55 20.72 118.76"/><polygon class="cls-210" points="21.65 119.21 22.59 119.66 0 166.31 0 163.93 21.65 119.21"/><polygon class="cls-211" points="22.59 119.66 23.52 120.12 0 168.69 0 166.31 22.59 119.66"/><polygon class="cls-212" points="23.52 120.12 24.45 120.57 0 171.07 0 168.69 23.52 120.12"/><polygon class="cls-213" points="24.45 120.57 25.39 121.02 0 173.45 0 171.07 24.45 120.57"/><polygon class="cls-34" points="25.39 121.02 26.32 121.47 0 175.83 0 173.45 25.39 121.02"/><polygon class="cls-214" points="26.32 121.47 27.25 121.92 0 178.21 0 175.83 26.32 121.47"/><polygon class="cls-215" points="27.25 121.92 28.19 122.38 0 180.59 0 178.21 27.25 121.92"/><polygon class="cls-216" points="28.19 122.38 29.12 122.83 0 182.97 0 180.59 28.19 122.38"/><polygon class="cls-217" points="29.12 122.83 30.06 123.28 0 185.35 0 182.97 29.12 122.83"/><polygon class="cls-218" points="30.06 123.28 30.99 123.73 0 187.73 0 185.35 30.06 123.28"/><polygon class="cls-219" points="30.99 123.73 31.92 124.18 0 190.11 0 187.73 30.99 123.73"/><polygon class="cls-41" points="31.92 124.18 32.86 124.64 0 192.49 0 190.11 31.92 124.18"/><polygon class="cls-220" points="32.86 124.64 33.79 125.09 0 194.87 0 192.49 32.86 124.64"/><polygon class="cls-221" points="33.79 125.09 34.72 125.54 0 197.25 0 194.87 33.79 125.09"/><polygon class="cls-222" points="34.72 125.54 35.66 125.99 0 199.63 0 197.25 34.72 125.54"/><polygon class="cls-223" points="35.66 125.99 36.59 126.44 0 202.01 0 199.63 35.66 125.99"/><polygon class="cls-224" points="36.59 126.44 37.52 126.9 0 204.39 0 202.01 36.59 126.44"/><polygon class="cls-47" points="37.52 126.9 38.46 127.35 0 206.77 0 204.39 37.52 126.9"/><polygon class="cls-48" points="38.46 127.35 39.39 127.8 0 209.15 0 206.77 38.46 127.35"/><polygon class="cls-225" points="39.39 127.8 40.33 128.25 0 211.53 0 209.15 39.39 127.8"/><polygon class="cls-226" points="40.33 128.25 41.26 128.71 0 213.91 0 211.53 40.33 128.25"/><polygon class="cls-227" points="41.26 128.71 42.19 129.16 0 216.29 0 213.91 41.26 128.71"/><polygon class="cls-228" points="42.19 129.16 43.13 129.61 0 218.68 0 216.29 42.19 129.16"/><polygon class="cls-229" points="43.13 129.61 44.06 130.06 0 221.06 0 218.68 43.13 129.61"/><polygon class="cls-54" points="44.06 130.06 44.99 130.51 0 223.44 0 221.06 44.06 130.06"/><polygon class="cls-55" points="44.99 130.51 45.93 130.97 0 225.81 0 223.44 44.99 130.51"/><polygon class="cls-230" points="45.93 130.97 46.86 131.42 0 228.2 0 225.81 45.93 130.97"/><polygon class="cls-231" points="46.86 131.42 47.8 131.87 0 230.58 0 228.2 46.86 131.42"/><polygon class="cls-232" points="47.8 131.87 48.73 132.32 0 232.96 0 230.58 47.8 131.87"/><polygon class="cls-233" points="48.73 132.32 49.66 132.77 0 235.34 0 232.96 48.73 132.32"/><polygon class="cls-60" points="49.66 132.77 50.6 133.23 0 237.72 0 235.34 49.66 132.77"/><polygon class="cls-61" points="50.6 133.23 51.53 133.68 0 240.1 0 237.72 50.6 133.23"/><polygon class="cls-234" points="51.53 133.68 52.46 134.13 0 242.48 0 240.1 51.53 133.68"/><polygon class="cls-235" points="52.46 134.13 53.4 134.58 0 244.86 0 242.48 52.46 134.13"/><polygon class="cls-236" points="53.4 134.58 54.33 135.03 0 247.24 0 244.86 53.4 134.58"/><polygon class="cls-237" points="54.33 135.03 55.26 135.49 0 249.62 0 247.24 54.33 135.03"/><polygon class="cls-238" points="55.26 135.49 56.2 135.94 0 252 0 249.62 55.26 135.49"/><polygon class="cls-67" points="56.2 135.94 57.13 136.39 0 254.38 0 252 56.2 135.94"/><polygon class="cls-68" points="57.13 136.39 58.06 136.84 0 256.76 0 254.38 57.13 136.39"/><polygon class="cls-239" points="58.06 136.84 59 137.29 0 259.14 0 256.76 58.06 136.84"/><polygon class="cls-240" points="59 137.29 59.93 137.75 0 261.52 0 259.14 59 137.29"/><polygon class="cls-241" points="59.93 137.75 60.87 138.2 0 263.9 0 261.52 59.93 137.75"/><polygon class="cls-242" points="60.87 138.2 61.8 138.65 0 266.28 0 263.9 60.87 138.2"/><polygon class="cls-73" points="61.8 138.65 62.73 139.1 0 268.66 0 266.28 61.8 138.65"/><polygon class="cls-74" points="62.73 139.1 63.67 139.56 0 271.04 0 268.66 62.73 139.1"/><polygon class="cls-75" points="63.67 139.56 64.6 140.01 0 273.42 0 271.04 63.67 139.56"/><polygon class="cls-243" points="64.6 140.01 65.53 140.46 0 275.8 0 273.42 64.6 140.01"/><polygon class="cls-244" points="65.53 140.46 66.47 140.91 0 278.18 0 275.8 65.53 140.46"/><polygon class="cls-245" points="66.47 140.91 67.4 141.36 0 280.56 0 278.18 66.47 140.91"/><polygon class="cls-246" points="67.4 141.36 68.33 141.81 0 282.94 0 280.56 67.4 141.36"/><polygon class="cls-80" points="68.33 141.81 69.27 142.27 0 285.32 0 282.94 68.33 141.81"/><polygon class="cls-81" points="69.27 142.27 70.2 142.72 0 287.7 0 285.32 69.27 142.27"/><polygon class="cls-82" points="70.2 142.72 71.14 143.17 0 290.08 0 287.7 70.2 142.72"/><polygon class="cls-247" points="71.14 143.17 72.07 143.62 0 292.46 0 290.08 71.14 143.17"/><polygon class="cls-248" points="72.07 143.62 73 144.07 0 294.84 0 292.46 72.07 143.62"/><polygon class="cls-249" points="73 144.07 73.94 144.53 0 297.22 0 294.84 73 144.07"/><polygon class="cls-250" points="73.94 144.53 74.87 144.98 0 299.6 0 297.22 73.94 144.53"/><polygon class="cls-87" points="74.87 144.98 75.8 145.43 0 301.98 0 299.6 74.87 144.98"/><polygon class="cls-88" points="75.8 145.43 76.74 145.88 0 304.36 0 301.98 75.8 145.43"/><polygon class="cls-89" points="76.74 145.88 77.67 146.34 0 306.74 0 304.36 76.74 145.88"/><polygon class="cls-251" points="77.67 146.34 78.6 146.79 0 309.12 0 306.74 77.67 146.34"/><polygon class="cls-252" points="78.6 146.79 79.54 147.24 0 311.5 0 309.12 78.6 146.79"/><polygon class="cls-253" points="79.54 147.24 80.47 147.69 0 313.88 0 311.5 79.54 147.24"/><polygon class="cls-93" points="80.47 147.69 81.41 148.14 0 316.26 0 313.88 80.47 147.69"/><polygon class="cls-94" points="81.41 148.14 82.34 148.6 0 318.64 0 316.26 81.41 148.14"/><polygon class="cls-95" points="82.34 148.6 83.27 149.05 0 321.02 0 318.64 82.34 148.6"/><polygon class="cls-254" points="83.27 149.05 84.21 149.5 0 323.4 0 321.02 83.27 149.05"/><polygon class="cls-255" points="84.21 149.5 85.14 149.95 0 325.78 0 323.4 84.21 149.5"/><polygon class="cls-256" points="85.14 149.95 86.07 150.4 0.67 326.78 0 326.45 0 325.78 85.14 149.95"/><rect class="cls-257" x="-54.14" y="235.89" width="195.96" height="1.04" transform="translate(-188.04 175.25) rotate(-64.16)"/><rect class="cls-100" x="-53.21" y="236.34" width="195.96" height="1.04" transform="translate(-187.92 176.34) rotate(-64.16)"/><rect class="cls-101" x="-52.27" y="236.79" width="195.96" height="1.04" transform="translate(-187.8 177.44) rotate(-64.16)"/><rect class="cls-102" x="-51.34" y="237.24" width="195.96" height="1.04" transform="translate(-187.68 178.53) rotate(-64.16)"/><rect class="cls-258" x="-50.41" y="237.7" width="195.96" height="1.04" transform="translate(-187.56 179.63) rotate(-64.16)"/><rect class="cls-259" x="-49.47" y="238.15" width="195.96" height="1.04" transform="translate(-187.44 180.72) rotate(-64.16)"/><rect class="cls-260" x="-48.54" y="238.6" width="195.96" height="1.04" transform="translate(-187.32 181.82) rotate(-64.16)"/><rect class="cls-106" x="-47.61" y="239.05" width="195.96" height="1.04" transform="translate(-187.2 182.91) rotate(-64.16)"/><rect class="cls-107" x="-46.67" y="239.5" width="195.96" height="1.04" transform="translate(-187.08 184.01) rotate(-64.16)"/><rect class="cls-108" x="-45.74" y="239.96" width="195.96" height="1.04" transform="translate(-186.96 185.1) rotate(-64.16)"/><rect class="cls-109" x="-44.8" y="240.41" width="195.96" height="1.04" transform="translate(-186.84 186.2) rotate(-64.16)"/><rect class="cls-261" x="-43.87" y="240.86" width="195.96" height="1.04" transform="translate(-186.72 187.29) rotate(-64.16)"/><rect class="cls-262" x="-42.94" y="241.31" width="195.96" height="1.04" transform="translate(-186.6 188.39) rotate(-64.16)"/><rect class="cls-263" x="-42" y="241.76" width="195.96" height="1.04" transform="translate(-186.48 189.48) rotate(-64.16)"/><rect class="cls-113" x="-41.07" y="242.22" width="195.96" height="1.04" transform="translate(-186.36 190.58) rotate(-64.16)"/><rect class="cls-114" x="-40.14" y="242.67" width="195.96" height="1.04" transform="translate(-186.24 191.68) rotate(-64.16)"/><rect class="cls-115" x="-39.2" y="243.12" width="195.96" height="1.04" transform="translate(-186.12 192.77) rotate(-64.16)"/><rect class="cls-116" x="-38.27" y="243.57" width="195.96" height="1.04" transform="translate(-186 193.87) rotate(-64.16)"/><rect class="cls-264" x="-37.34" y="244.03" width="195.96" height="1.04" transform="translate(-185.88 194.96) rotate(-64.16)"/><rect class="cls-265" x="-36.4" y="244.48" width="195.96" height="1.04" transform="translate(-185.76 196.06) rotate(-64.16)"/><rect class="cls-119" x="-35.47" y="244.93" width="195.96" height="1.04" transform="translate(-185.64 197.15) rotate(-64.16)"/><rect class="cls-120" x="-34.53" y="245.38" width="195.96" height="1.04" transform="translate(-185.52 198.25) rotate(-64.16)"/><rect class="cls-121" x="-33.6" y="245.83" width="195.96" height="1.04" transform="translate(-185.4 199.34) rotate(-64.16)"/><rect class="cls-122" x="-32.67" y="246.29" width="195.96" height="1.04" transform="translate(-185.28 200.44) rotate(-64.16)"/><rect class="cls-123" x="-31.73" y="246.74" width="195.96" height="1.04" transform="translate(-185.16 201.53) rotate(-64.16)"/><rect class="cls-266" x="-30.8" y="247.19" width="195.96" height="1.04" transform="translate(-185.04 202.63) rotate(-64.16)"/><rect class="cls-267" x="-29.87" y="247.64" width="195.96" height="1.04" transform="translate(-184.92 203.72) rotate(-64.16)"/><rect class="cls-126" x="-28.93" y="248.09" width="195.96" height="1.04" transform="translate(-184.81 204.82) rotate(-64.16)"/><rect class="cls-127" x="-28" y="248.55" width="195.96" height="1.04" transform="translate(-184.69 205.92) rotate(-64.16)"/><rect class="cls-128" x="-27.07" y="249" width="195.96" height="1.04" transform="translate(-184.57 207.01) rotate(-64.16)"/><rect class="cls-129" x="-26.13" y="249.45" width="195.96" height="1.04" transform="translate(-184.45 208.11) rotate(-64.16)"/><rect class="cls-130" x="-25.2" y="249.9" width="195.96" height="1.04" transform="translate(-184.33 209.2) rotate(-64.16)"/><rect class="cls-268" x="-24.27" y="250.35" width="195.96" height="1.04" transform="translate(-184.21 210.3) rotate(-64.16)"/><rect class="cls-269" x="-23.33" y="250.81" width="195.96" height="1.04" transform="translate(-184.09 211.39) rotate(-64.16)"/><rect class="cls-133" x="-22.4" y="251.26" width="195.96" height="1.04" transform="translate(-183.97 212.49) rotate(-64.16)"/><rect class="cls-134" x="-21.46" y="251.71" width="195.96" height="1.04" transform="translate(-183.85 213.58) rotate(-64.16)"/><rect class="cls-135" x="-20.53" y="252.16" width="195.96" height="1.04" transform="translate(-183.73 214.68) rotate(-64.16)"/><polygon class="cls-136" points="120.62 167.13 121.55 167.58 36.32 343.6 35.42 343.6 35.22 343.5 120.62 167.13"/><polygon class="cls-270" points="121.55 167.58 122.48 168.03 37.47 343.6 36.32 343.6 121.55 167.58"/><polygon class="cls-271" points="122.48 168.03 123.42 168.49 38.63 343.6 37.47 343.6 122.48 168.03"/><polygon class="cls-139" points="123.42 168.49 124.35 168.94 39.78 343.6 38.63 343.6 123.42 168.49"/><polygon class="cls-140" points="124.35 168.94 125.28 169.39 40.93 343.6 39.78 343.6 124.35 168.94"/><polygon class="cls-141" points="125.28 169.39 126.22 169.84 42.08 343.6 40.93 343.6 125.28 169.39"/><polygon class="cls-142" points="126.22 169.84 127.15 170.29 43.24 343.6 42.08 343.6 126.22 169.84"/><polygon class="cls-143" points="127.15 170.29 128.09 170.75 44.39 343.6 43.24 343.6 127.15 170.29"/><polygon class="cls-272" points="128.09 170.75 129.02 171.2 45.54 343.6 44.39 343.6 128.09 170.75"/><polygon class="cls-273" points="129.02 171.2 129.95 171.65 46.69 343.6 45.54 343.6 129.02 171.2"/><polygon class="cls-146" points="129.95 171.65 130.89 172.1 47.85 343.6 46.69 343.6 129.95 171.65"/><polygon class="cls-147" points="130.89 172.1 131.82 172.56 49 343.6 47.85 343.6 130.89 172.1"/><polygon class="cls-148" points="131.82 172.56 132.75 173.01 50.15 343.6 49 343.6 131.82 172.56"/><polygon class="cls-149" points="132.75 173.01 133.69 173.46 51.3 343.6 50.15 343.6 132.75 173.01"/><polygon class="cls-150" points="133.69 173.46 134.62 173.91 52.46 343.6 51.3 343.6 133.69 173.46"/><polygon class="cls-274" points="134.62 173.91 135.56 174.36 53.61 343.6 52.46 343.6 134.62 173.91"/><polygon class="cls-152" points="135.56 174.36 136.49 174.82 54.76 343.6 53.61 343.6 135.56 174.36"/><polygon class="cls-153" points="136.49 174.82 137.42 175.27 55.91 343.6 54.76 343.6 136.49 174.82"/><polygon class="cls-154" points="137.42 175.27 138.36 175.72 57.07 343.6 55.91 343.6 137.42 175.27"/><polygon class="cls-155" points="138.36 175.72 139.29 176.17 58.22 343.6 57.07 343.6 138.36 175.72"/><polygon class="cls-156" points="139.29 176.17 140.22 176.62 59.37 343.6 58.22 343.6 139.29 176.17"/><polygon class="cls-157" points="140.22 176.62 141.16 177.08 60.52 343.6 59.37 343.6 140.22 176.62"/><polygon class="cls-275" points="141.16 177.08 142.09 177.53 61.68 343.6 60.52 343.6 141.16 177.08"/><polygon class="cls-159" points="142.09 177.53 143.02 177.98 62.83 343.6 61.68 343.6 142.09 177.53"/><polygon class="cls-160" points="143.02 177.98 143.96 178.43 63.98 343.6 62.83 343.6 143.02 177.98"/><polygon class="cls-161" points="143.96 178.43 144.89 178.88 65.13 343.6 63.98 343.6 143.96 178.43"/><polygon class="cls-162" points="144.89 178.88 145.82 179.34 66.29 343.6 65.13 343.6 144.89 178.88"/><polygon class="cls-163" points="145.82 179.34 146.76 179.79 67.44 343.6 66.29 343.6 145.82 179.34"/><polygon class="cls-164" points="146.76 179.79 147.69 180.24 68.59 343.6 67.44 343.6 146.76 179.79"/><polygon class="cls-165" points="147.69 180.24 148.63 180.69 69.74 343.6 68.59 343.6 147.69 180.24"/><polygon class="cls-166" points="148.63 180.69 149.56 181.15 70.9 343.6 69.74 343.6 148.63 180.69"/><polygon class="cls-167" points="149.56 181.15 150.49 181.6 72.05 343.6 70.9 343.6 149.56 181.15"/><polygon class="cls-168" points="150.49 181.6 151.43 182.05 73.2 343.6 72.05 343.6 150.49 181.6"/><polygon class="cls-169" points="151.43 182.05 152.36 182.5 74.35 343.6 73.2 343.6 151.43 182.05"/><polygon class="cls-170" points="152.36 182.5 153.29 182.95 75.51 343.6 74.35 343.6 152.36 182.5"/><polygon class="cls-276" points="153.29 182.95 154.23 183.41 76.66 343.6 75.51 343.6 153.29 182.95"/><polygon class="cls-172" points="154.23 183.41 155.16 183.86 77.81 343.6 76.66 343.6 154.23 183.41"/><polygon class="cls-173" points="155.16 183.86 156.09 184.31 78.96 343.6 77.81 343.6 155.16 183.86"/><polygon class="cls-174" points="156.09 184.31 157.03 184.76 80.12 343.6 78.96 343.6 156.09 184.31"/><polygon class="cls-175" points="157.03 184.76 157.96 185.21 81.27 343.6 80.12 343.6 157.03 184.76"/><polygon class="cls-176" points="157.96 185.21 158.9 185.67 82.42 343.6 81.27 343.6 157.96 185.21"/><polygon class="cls-177" points="158.9 185.67 159.83 186.12 83.57 343.6 82.42 343.6 158.9 185.67"/><polygon class="cls-277" points="159.83 186.12 160.76 186.57 84.73 343.6 83.57 343.6 159.83 186.12"/><polygon class="cls-179" points="160.76 186.57 161.7 187.02 85.88 343.6 84.73 343.6 160.76 186.57"/><polygon class="cls-180" points="161.7 187.02 162.63 187.47 87.03 343.6 85.88 343.6 161.7 187.02"/><polygon class="cls-181" points="162.63 187.47 163.39 187.84 163.39 188.29 88.18 343.6 87.03 343.6 162.63 187.47"/><polygon class="cls-182" points="163.39 190.67 89.34 343.6 88.18 343.6 163.39 188.29 163.39 190.67"/><polygon class="cls-183" points="163.39 193.05 90.49 343.6 89.34 343.6 163.39 190.67 163.39 193.05"/><polygon class="cls-184" points="163.39 195.43 91.64 343.6 90.49 343.6 163.39 193.05 163.39 195.43"/><polygon class="cls-185" points="163.39 197.81 92.79 343.6 91.64 343.6 163.39 195.43 163.39 197.81"/><polygon class="cls-186" points="163.39 200.19 93.95 343.6 92.79 343.6 163.39 197.81 163.39 200.19"/><polygon class="cls-187" points="163.39 202.57 95.1 343.6 93.95 343.6 163.39 200.19 163.39 202.57"/><polygon class="cls-188" points="163.39 204.96 96.25 343.6 95.1 343.6 163.39 202.57 163.39 204.96"/><polygon class="cls-188" points="96.25 343.6 163.39 204.96 163.39 343.6 96.25 343.6"/></g><g class="cls-278"><polygon class="cls-4" points="309.63 114.77 115.09 71.05 115.09 64.74 121.79 34.94 309.63 34.94 309.63 114.77"/><polygon class="cls-4" points="309.63 116.12 115.09 72.4 115.09 71.05 309.63 114.77 309.63 116.12"/><polygon class="cls-5" points="309.63 117.47 115.09 73.75 115.09 72.4 309.63 116.12 309.63 117.47"/><polygon class="cls-6" points="309.63 118.82 115.09 75.1 115.09 73.75 309.63 117.47 309.63 118.82"/><polygon class="cls-7" points="309.63 120.17 115.09 76.45 115.09 75.1 309.63 118.82 309.63 120.17"/><polygon class="cls-8" points="309.63 121.52 115.09 77.8 115.09 76.45 309.63 120.17 309.63 121.52"/><polygon class="cls-9" points="309.63 122.87 115.09 79.15 115.09 77.8 309.63 121.52 309.63 122.87"/><polygon class="cls-10" points="309.63 124.22 115.09 80.5 115.09 79.15 309.63 122.87 309.63 124.22"/><polygon class="cls-11" points="309.63 125.57 115.09 81.85 115.09 80.5 309.63 124.22 309.63 125.57"/><polygon class="cls-12" points="309.63 126.92 115.09 83.2 115.09 81.85 309.63 125.57 309.63 126.92"/><polygon class="cls-13" points="309.63 128.27 115.09 84.55 115.09 83.2 309.63 126.92 309.63 128.27"/><polygon class="cls-14" points="309.63 129.62 115.09 85.9 115.09 84.55 309.63 128.27 309.63 129.62"/><polygon class="cls-15" points="309.63 130.97 115.09 87.25 115.09 85.9 309.63 129.62 309.63 130.97"/><polygon class="cls-16" points="309.63 132.32 115.09 88.6 115.09 87.25 309.63 130.97 309.63 132.32"/><polygon class="cls-17" points="309.63 133.67 115.09 89.95 115.09 88.6 309.63 132.32 309.63 133.67"/><polygon class="cls-18" points="309.63 135.02 115.09 91.3 115.09 89.95 309.63 133.67 309.63 135.02"/><polygon class="cls-19" points="309.63 136.37 115.09 92.65 115.09 91.3 309.63 135.02 309.63 136.37"/><polygon class="cls-20" points="309.63 137.72 115.09 94 115.09 92.65 309.63 136.37 309.63 137.72"/><polygon class="cls-21" points="309.63 139.07 115.09 95.35 115.09 94 309.63 137.72 309.63 139.07"/><polygon class="cls-22" points="309.63 140.42 115.09 96.7 115.09 95.35 309.63 139.07 309.63 140.42"/><polygon class="cls-23" points="309.63 141.77 115.09 98.05 115.09 96.7 309.63 140.42 309.63 141.77"/><polygon class="cls-24" points="309.63 143.12 115.09 99.4 115.09 98.05 309.63 141.77 309.63 143.12"/><polygon class="cls-25" points="309.63 144.47 115.09 100.75 115.09 99.4 309.63 143.12 309.63 144.47"/><polygon class="cls-26" points="309.63 145.82 115.09 102.1 115.09 100.75 309.63 144.47 309.63 145.82"/><polygon class="cls-27" points="309.63 147.17 115.09 103.45 115.09 102.1 309.63 145.82 309.63 147.17"/><polygon class="cls-28" points="309.63 148.52 115.09 104.8 115.09 103.45 309.63 147.17 309.63 148.52"/><polygon class="cls-29" points="309.63 149.87 115.09 106.15 115.09 104.8 309.63 148.52 309.63 149.87"/><polygon class="cls-30" points="309.63 151.22 115.09 107.5 115.09 106.15 309.63 149.87 309.63 151.22"/><polygon class="cls-31" points="309.63 152.57 115.09 108.85 115.09 107.5 309.63 151.22 309.63 152.57"/><polygon class="cls-32" points="309.63 153.92 115.09 110.19 115.09 108.85 309.63 152.57 309.63 153.92"/><polygon class="cls-33" points="309.63 155.27 115.09 111.55 115.09 110.19 309.63 153.92 309.63 155.27"/><polygon class="cls-34" points="309.63 156.62 115.09 112.89 115.09 111.55 309.63 155.27 309.63 156.62"/><polygon class="cls-35" points="309.63 157.97 115.09 114.25 115.09 112.89 309.63 156.62 309.63 157.97"/><polygon class="cls-36" points="309.63 159.32 115.09 115.59 115.09 114.25 309.63 157.97 309.63 159.32"/><polygon class="cls-37" points="309.63 160.67 115.09 116.94 115.09 115.59 309.63 159.32 309.63 160.67"/><polygon class="cls-38" points="309.63 162.02 115.09 118.29 115.09 116.94 309.63 160.67 309.63 162.02"/><polygon class="cls-39" points="309.63 163.37 115.09 119.64 115.09 118.29 309.63 162.02 309.63 163.37"/><polygon class="cls-40" points="309.63 164.72 115.09 120.99 115.09 119.64 309.63 163.37 309.63 164.72"/><polygon class="cls-41" points="309.63 166.07 115.09 122.34 115.09 120.99 309.63 164.72 309.63 166.07"/><polygon class="cls-42" points="309.63 167.42 115.09 123.69 115.09 122.34 309.63 166.07 309.63 167.42"/><polygon class="cls-43" points="309.63 168.77 115.09 125.04 115.09 123.69 309.63 167.42 309.63 168.77"/><polygon class="cls-44" points="309.63 170.12 115.09 126.39 115.09 125.04 309.63 168.77 309.63 170.12"/><polygon class="cls-45" points="309.63 171.47 115.09 127.74 115.09 126.39 309.63 170.12 309.63 171.47"/><polygon class="cls-46" points="309.63 172.81 115.09 129.09 115.09 127.74 309.63 171.47 309.63 172.81"/><polygon class="cls-47" points="309.63 174.16 115.09 130.44 115.09 129.09 309.63 172.81 309.63 174.16"/><polygon class="cls-48" points="309.63 175.51 115.09 131.79 115.09 130.44 309.63 174.16 309.63 175.51"/><polygon class="cls-49" points="309.63 176.87 115.09 133.14 115.09 131.79 309.63 175.51 309.63 176.87"/><polygon class="cls-50" points="309.63 178.22 115.09 134.49 115.09 133.14 309.63 176.87 309.63 178.22"/><polygon class="cls-51" points="309.63 179.56 115.09 135.84 115.09 134.49 309.63 178.22 309.63 179.56"/><polygon class="cls-52" points="309.63 180.91 115.09 137.19 115.09 135.84 309.63 179.56 309.63 180.91"/><polygon class="cls-53" points="309.63 182.26 115.09 138.54 115.09 137.19 309.63 180.91 309.63 182.26"/><polygon class="cls-54" points="309.63 183.61 115.09 139.89 115.09 138.54 309.63 182.26 309.63 183.61"/><polygon class="cls-55" points="309.63 184.96 115.09 141.24 115.09 139.89 309.63 183.61 309.63 184.96"/><polygon class="cls-56" points="309.63 186.31 115.09 142.59 115.09 141.24 309.63 184.96 309.63 186.31"/><polygon class="cls-57" points="309.63 187.66 115.09 143.94 115.09 142.59 309.63 186.31 309.63 187.66"/><polygon class="cls-58" points="309.63 189.01 115.09 145.29 115.09 143.94 309.63 187.66 309.63 189.01"/><polygon class="cls-59" points="309.63 190.36 115.09 146.64 115.09 145.29 309.63 189.01 309.63 190.36"/><polygon class="cls-60" points="309.63 191.71 115.09 147.99 115.09 146.64 309.63 190.36 309.63 191.71"/><polygon class="cls-61" points="309.63 193.06 115.09 149.34 115.09 147.99 309.63 191.71 309.63 193.06"/><polygon class="cls-62" points="309.63 194.41 115.09 150.69 115.09 149.34 309.63 193.06 309.63 194.41"/><polygon class="cls-63" points="309.63 195.76 115.09 152.04 115.09 150.69 309.63 194.41 309.63 195.76"/><polygon class="cls-64" points="309.63 197.11 115.09 153.39 115.09 152.04 309.63 195.76 309.63 197.11"/><polygon class="cls-65" points="309.63 198.46 115.09 154.74 115.09 153.39 309.63 197.11 309.63 198.46"/><polygon class="cls-66" points="309.63 199.81 115.09 156.09 115.09 154.74 309.63 198.46 309.63 199.81"/><polygon class="cls-67" points="309.63 201.16 115.09 157.44 115.09 156.09 309.63 199.81 309.63 201.16"/><polygon class="cls-68" points="309.63 201.41 309.39 202.46 115.09 158.79 115.09 157.44 309.63 201.16 309.63 201.41"/><polygon class="cls-69" points="309.39 202.46 309.1 203.74 115.09 160.14 115.09 158.79 309.39 202.46"/><polygon class="cls-70" points="309.1 203.74 308.81 205.03 115.09 161.49 115.09 160.14 309.1 203.74"/><polygon class="cls-71" points="308.81 205.03 308.53 206.31 115.09 162.84 115.09 161.49 308.81 205.03"/><polygon class="cls-72" points="308.53 206.31 308.24 207.6 115.09 164.19 115.09 162.84 308.53 206.31"/><polygon class="cls-73" points="308.24 207.6 307.95 208.88 115.09 165.54 115.09 164.19 308.24 207.6"/><polygon class="cls-74" points="307.95 208.88 307.66 210.17 115.09 166.89 115.09 165.54 307.95 208.88"/><polygon class="cls-75" points="307.66 210.17 307.37 211.45 115.09 168.24 115.09 166.89 307.66 210.17"/><polygon class="cls-76" points="307.37 211.45 307.08 212.74 115.09 169.59 115.09 168.24 307.37 211.45"/><polygon class="cls-77" points="307.08 212.74 306.79 214.02 115.09 170.94 115.09 169.59 307.08 212.74"/><polygon class="cls-78" points="306.79 214.02 306.5 215.31 115.09 172.29 115.09 170.94 306.79 214.02"/><polygon class="cls-79" points="306.5 215.31 306.22 216.59 115.09 173.64 115.09 172.29 306.5 215.31"/><polygon class="cls-80" points="306.22 216.59 305.93 217.88 115.09 174.99 115.09 173.64 306.22 216.59"/><polygon class="cls-81" points="305.93 217.88 305.64 219.16 115.09 176.34 115.09 174.99 305.93 217.88"/><polygon class="cls-82" points="305.64 219.16 305.35 220.45 115.09 177.69 115.09 176.34 305.64 219.16"/><polygon class="cls-83" points="305.35 220.45 305.06 221.73 115.09 179.03 115.09 177.69 305.35 220.45"/><polygon class="cls-84" points="305.06 221.73 304.77 223.02 115.09 180.38 115.09 179.03 305.06 221.73"/><polygon class="cls-85" points="304.77 223.02 304.48 224.3 115.09 181.74 115.09 180.38 304.77 223.02"/><polygon class="cls-86" points="304.48 224.3 304.19 225.59 115.09 183.08 115.09 181.74 304.48 224.3"/><polygon class="cls-87" points="304.19 225.59 303.91 226.87 115.09 184.43 115.09 183.08 304.19 225.59"/><polygon class="cls-88" points="303.91 226.87 303.62 228.16 115.09 185.78 115.09 184.43 303.91 226.87"/><polygon class="cls-89" points="303.62 228.16 303.33 229.44 115.09 187.13 115.09 185.78 303.62 228.16"/><polygon class="cls-90" points="303.33 229.44 303.04 230.73 115.09 188.48 115.09 187.13 303.33 229.44"/><polygon class="cls-91" points="303.04 230.73 302.75 232.01 115.09 189.83 115.09 188.48 303.04 230.73"/><polygon class="cls-92" points="302.75 232.01 302.46 233.29 115.09 191.18 115.09 189.83 302.75 232.01"/><polygon class="cls-93" points="302.46 233.29 302.17 234.58 115.09 192.53 115.09 191.18 302.46 233.29"/><polygon class="cls-94" points="302.17 234.58 301.88 235.87 115.09 193.88 115.09 192.53 302.17 234.58"/><polygon class="cls-95" points="301.88 235.87 301.6 237.15 115.09 195.23 115.09 193.88 301.88 235.87"/><polygon class="cls-96" points="301.6 237.15 301.31 238.44 115.09 196.58 115.09 195.23 301.6 237.15"/><polygon class="cls-97" points="301.31 238.44 301.02 239.72 115.09 197.93 115.09 196.58 301.31 238.44"/><polygon class="cls-98" points="301.02 239.72 300.73 241 115.09 199.28 115.09 197.93 301.02 239.72"/><polygon class="cls-99" points="300.73 241 300.44 242.29 115.09 200.63 115.09 199.28 300.73 241"/><polygon class="cls-100" points="300.44 242.29 300.15 243.57 115.09 201.98 115.09 200.63 300.44 242.29"/><polygon class="cls-101" points="300.15 243.57 299.86 244.86 115.09 203.33 115.09 201.98 300.15 243.57"/><polygon class="cls-102" points="299.86 244.86 299.57 246.14 115.09 204.68 115.09 203.33 299.86 244.86"/><polygon class="cls-103" points="299.57 246.14 299.29 247.43 115.09 206.03 115.09 204.68 299.57 246.14"/><polygon class="cls-104" points="299.29 247.43 299 248.71 115.09 207.38 115.09 206.03 299.29 247.43"/><polygon class="cls-105" points="299 248.71 298.71 250 115.09 208.73 115.09 207.38 299 248.71"/><polygon class="cls-106" points="298.71 250 298.42 251.28 115.09 210.08 115.09 208.73 298.71 250"/><polygon class="cls-107" points="298.42 251.28 298.13 252.57 115.09 211.43 115.09 210.08 298.42 251.28"/><polygon class="cls-108" points="298.13 252.57 297.84 253.85 115.09 212.78 115.09 211.43 298.13 252.57"/><polygon class="cls-109" points="297.84 253.85 297.55 255.14 115.09 214.13 115.09 212.78 297.84 253.85"/><polygon class="cls-110" points="297.55 255.14 297.26 256.42 115.09 215.48 115.09 214.13 297.55 255.14"/><polygon class="cls-111" points="297.26 256.42 296.98 257.71 115.09 216.83 115.09 215.48 297.26 256.42"/><polygon class="cls-112" points="296.98 257.71 296.69 258.99 115.09 218.18 115.09 216.83 296.98 257.71"/><polygon class="cls-113" points="296.69 258.99 296.4 260.28 115.09 219.53 115.09 218.18 296.69 258.99"/><polygon class="cls-114" points="296.4 260.28 296.11 261.56 115.09 220.88 115.09 219.53 296.4 260.28"/><polygon class="cls-115" points="296.11 261.56 295.82 262.85 115.09 222.23 115.09 220.88 296.11 261.56"/><polygon class="cls-116" points="295.82 262.85 295.53 264.13 115.09 223.58 115.09 222.23 295.82 262.85"/><polygon class="cls-117" points="295.53 264.13 295.24 265.42 115.09 224.93 115.09 223.58 295.53 264.13"/><polygon class="cls-118" points="295.24 265.42 294.95 266.7 115.09 226.28 115.09 224.93 295.24 265.42"/><polygon class="cls-119" points="294.95 266.7 294.67 267.99 115.09 227.63 115.09 226.28 294.95 266.7"/><polygon class="cls-120" points="294.67 267.99 294.38 269.27 115.09 228.98 115.09 227.63 294.67 267.99"/><polygon class="cls-121" points="294.38 269.27 294.09 270.56 115.09 230.33 115.09 228.98 294.38 269.27"/><polygon class="cls-122" points="294.09 270.56 293.8 271.84 115.09 231.68 115.09 230.33 294.09 270.56"/><polygon class="cls-123" points="293.8 271.84 293.51 273.13 115.09 233.03 115.09 231.68 293.8 271.84"/><polygon class="cls-124" points="293.51 273.13 293.22 274.41 115.09 234.38 115.09 233.03 293.51 273.13"/><polygon class="cls-125" points="293.22 274.41 292.93 275.7 115.09 235.73 115.09 234.38 293.22 274.41"/><polygon class="cls-126" points="292.93 275.7 292.64 276.98 115.09 237.08 115.09 235.73 292.93 275.7"/><polygon class="cls-127" points="292.64 276.98 292.35 278.27 115.09 238.43 115.09 237.08 292.64 276.98"/><polygon class="cls-128" points="292.35 278.27 292.07 279.55 115.09 239.78 115.09 238.43 292.35 278.27"/><polygon class="cls-129" points="292.07 279.55 291.78 280.84 115.09 241.13 115.09 239.78 292.07 279.55"/><polygon class="cls-130" points="291.78 280.84 291.49 282.12 115.09 242.47 115.09 241.13 291.78 280.84"/><polygon class="cls-131" points="291.49 282.12 291.2 283.41 115.09 243.82 115.09 242.47 291.49 282.12"/><polygon class="cls-132" points="291.2 283.41 290.91 284.69 115.09 245.18 115.09 243.82 291.2 283.41"/><polygon class="cls-133" points="290.91 284.69 290.62 285.98 115.09 246.53 115.09 245.18 290.91 284.69"/><polygon class="cls-134" points="290.62 285.98 290.33 287.26 115.09 247.87 115.09 246.53 290.62 285.98"/><polygon class="cls-135" points="290.33 287.26 290.04 288.55 115.09 249.22 115.09 247.87 290.33 287.26"/><polygon class="cls-136" points="290.04 288.55 289.75 289.83 115.09 250.57 115.09 249.22 290.04 288.55"/><polygon class="cls-137" points="289.75 289.83 289.47 291.12 115.09 251.92 115.09 250.57 289.75 289.83"/><polygon class="cls-138" points="289.47 291.12 289.18 292.4 115.09 253.27 115.09 251.92 289.47 291.12"/><polygon class="cls-139" points="289.18 292.4 288.89 293.69 115.09 254.62 115.09 253.27 289.18 292.4"/><polygon class="cls-140" points="288.89 293.69 288.6 294.97 115.09 255.97 115.09 254.62 288.89 293.69"/><polygon class="cls-141" points="288.6 294.97 288.31 296.25 115.09 257.32 115.09 255.97 288.6 294.97"/><polygon class="cls-142" points="288.31 296.25 288.02 297.54 115.09 258.67 115.09 257.32 288.31 296.25"/><polygon class="cls-143" points="288.02 297.54 287.73 298.82 115.09 260.02 115.09 258.67 288.02 297.54"/><polygon class="cls-144" points="287.73 298.82 287.44 300.11 115.09 261.37 115.09 260.02 287.73 298.82"/><polygon class="cls-145" points="287.44 300.11 287.16 301.39 115.09 262.72 115.09 261.37 287.44 300.11"/><polygon class="cls-146" points="287.16 301.39 286.87 302.68 115.09 264.07 115.09 262.72 287.16 301.39"/><polygon class="cls-147" points="286.87 302.68 286.58 303.96 115.09 265.42 115.09 264.07 286.87 302.68"/><polygon class="cls-148" points="286.58 303.96 286.29 305.25 115.09 266.77 115.09 265.42 286.58 303.96"/><polygon class="cls-149" points="286.29 305.25 286 306.53 115.09 268.12 115.09 266.77 286.29 305.25"/><polygon class="cls-150" points="286 306.53 285.71 307.82 115.09 269.47 115.09 268.12 286 306.53"/><polygon class="cls-151" points="285.71 307.82 285.42 309.1 115.09 270.82 115.09 269.47 285.71 307.82"/><polygon class="cls-152" points="285.42 309.1 285.13 310.39 115.09 272.17 115.09 270.82 285.42 309.1"/><polygon class="cls-153" points="285.13 310.39 284.85 311.67 115.09 273.52 115.09 272.17 285.13 310.39"/><polygon class="cls-154" points="284.85 311.67 284.56 312.96 115.09 274.87 115.09 273.52 284.85 311.67"/><polygon class="cls-155" points="284.56 312.96 284.27 314.24 115.09 276.22 115.09 274.87 284.56 312.96"/><polygon class="cls-156" points="284.27 314.24 283.98 315.53 115.09 277.57 115.09 276.22 284.27 314.24"/><polygon class="cls-157" points="283.98 315.53 283.85 316.12 280.62 316.12 115.09 278.92 115.09 277.57 283.98 315.53"/><polygon class="cls-158" points="274.62 316.12 115.09 280.27 115.09 278.92 280.62 316.12 274.62 316.12"/><polygon class="cls-159" points="268.61 316.12 115.09 281.62 115.09 280.27 274.62 316.12 268.61 316.12"/><polygon class="cls-160" points="262.61 316.12 115.09 282.97 115.09 281.62 268.61 316.12 262.61 316.12"/><polygon class="cls-161" points="256.6 316.12 115.09 284.32 115.09 282.97 262.61 316.12 256.6 316.12"/><polygon class="cls-162" points="250.59 316.12 115.09 285.67 115.09 284.32 256.6 316.12 250.59 316.12"/><polygon class="cls-163" points="244.59 316.12 115.09 287.02 115.09 285.67 250.59 316.12 244.59 316.12"/><polygon class="cls-164" points="238.58 316.12 115.09 288.37 115.09 287.02 244.59 316.12 238.58 316.12"/><polygon class="cls-165" points="232.58 316.12 115.09 289.72 115.09 288.37 238.58 316.12 232.58 316.12"/><polygon class="cls-166" points="226.57 316.12 115.09 291.07 115.09 289.72 232.58 316.12 226.57 316.12"/><polygon class="cls-167" points="220.57 316.12 115.09 292.42 115.09 291.07 226.57 316.12 220.57 316.12"/><polygon class="cls-168" points="214.56 316.12 115.09 293.77 115.09 292.42 220.57 316.12 214.56 316.12"/><polygon class="cls-169" points="208.56 316.12 115.09 295.12 115.09 293.77 214.56 316.12 208.56 316.12"/><polygon class="cls-170" points="202.55 316.12 115.09 296.47 115.09 295.12 208.56 316.12 202.55 316.12"/><polygon class="cls-171" points="196.54 316.12 115.09 297.82 115.09 296.47 202.55 316.12 196.54 316.12"/><polygon class="cls-172" points="190.54 316.12 115.09 299.17 115.09 297.82 196.54 316.12 190.54 316.12"/><polygon class="cls-173" points="184.53 316.12 115.09 300.52 115.09 299.17 190.54 316.12 184.53 316.12"/><polygon class="cls-174" points="178.53 316.12 115.09 301.87 115.09 300.52 184.53 316.12 178.53 316.12"/><polygon class="cls-175" points="172.52 316.12 115.09 303.22 115.09 301.87 178.53 316.12 172.52 316.12"/><polygon class="cls-176" points="166.52 316.12 115.09 304.57 115.09 303.22 172.52 316.12 166.52 316.12"/><polygon class="cls-177" points="160.51 316.12 115.09 305.92 115.09 304.57 166.52 316.12 160.51 316.12"/><polygon class="cls-178" points="154.5 316.12 115.09 307.26 115.09 305.92 160.51 316.12 154.5 316.12"/><polygon class="cls-179" points="148.5 316.12 115.09 308.62 115.09 307.26 154.5 316.12 148.5 316.12"/><polygon class="cls-180" points="142.49 316.12 115.09 309.96 115.09 308.62 148.5 316.12 142.49 316.12"/><polygon class="cls-181" points="136.49 316.12 115.09 311.31 115.09 309.96 142.49 316.12 136.49 316.12"/><polygon class="cls-182" points="130.48 316.12 115.09 312.67 115.09 311.31 136.49 316.12 130.48 316.12"/><polygon class="cls-183" points="124.48 316.12 115.09 314.01 115.09 312.67 130.48 316.12 124.48 316.12"/><polygon class="cls-184" points="118.47 316.12 115.09 315.36 115.09 314.01 124.48 316.12 118.47 316.12"/><polygon class="cls-185" points="115.09 315.36 118.47 316.12 115.09 316.12 115.09 315.36"/></g></g></g></svg>