<svg xmlns="http://www.w3.org/2000/svg" xmlns:xlink="http://www.w3.org/1999/xlink" viewBox="0 0 1469.28 341.19"><defs><style>.cls-1{font-size:208.89px;fill:#fff;font-family:AirstripFour, Airstrip Four;}.cls-2{fill:url(#linear-gradient);}.cls-3{fill:url(#linear-gradient-2);}.cls-4{fill:url(#linear-gradient-3);}</style><linearGradient id="linear-gradient" x1="144.84" y1="119.28" x2="64.61" y2="177.71" gradientUnits="userSpaceOnUse"><stop offset="0" stop-color="#d6e039"/><stop offset="1" stop-color="#1db954"/></linearGradient><linearGradient id="linear-gradient-2" x1="-45.2" y1="192.99" x2="127.52" y2="276.62" gradientUnits="userSpaceOnUse"><stop offset="0" stop-color="#d6e038"/><stop offset="1" stop-color="#1db954"/></linearGradient><linearGradient id="linear-gradient-3" x1="219.54" y1="92.12" x2="166.12" y2="329.82" xlink:href="#linear-gradient"/></defs><title>Asset 1</title><g id="Layer_2" data-name="Layer 2"><g id="Layer_3" data-name="Layer 3"><text class="cls-1" transform="translate(364.32 236.49)">Music App</text><path class="cls-2" d="M283,124.39,123.84,32.53,80,7.23a52.81,52.81,0,0,0-53.34,0A52.81,52.81,0,0,0,0,53.44V287.75A52.8,52.8,0,0,0,26.68,334,52.81,52.81,0,0,0,80,334l35.07-20.25,48.3-27.88L283,216.8a53.35,53.35,0,0,0,0-92.41Zm-21.37,55.39L133.69,253.61l-17,9.84-58,33.49a10.61,10.61,0,0,1-15.91-9.19V53.44a10.4,10.4,0,0,1,5.31-9.19,10.92,10.92,0,0,1,5.36-1.46,10.29,10.29,0,0,1,5.24,1.46L122.34,81l139.24,80.39a10.61,10.61,0,0,1,0,18.37Z"/><path class="cls-3" d="M163.39,285.83,80,334A53.35,53.35,0,0,1,0,287.75V108.54l42.74,46.38V287.75a10.61,10.61,0,0,0,15.91,9.19l75-43.33Z"/><path class="cls-4" d="M309.63,170.59A52.81,52.81,0,0,1,283,216.8l-119.56,69-48.3,27.88,1.57-50.26,17-9.84,127.89-73.83a10.61,10.61,0,0,0,0-18.37L122.34,81l1.5-48.49L283,124.39A52.81,52.81,0,0,1,309.63,170.59Z"/></g></g></svg>