<svg xmlns="http://www.w3.org/2000/svg" viewBox="0 0 512 512"><defs><style>.cls-1{fill:#b3b3b3;}</style></defs><title>search-icon</title><g id="Layer_2" data-name="Layer 2"><g id="Layer_1-2" data-name="Layer 1"><path class="cls-1" d="M508.88,493.79,353.09,338a201.62,201.62,0,0,0,52.24-135.34C405.33,90.92,314.42,0,202.67,0S0,90.92,0,202.67,90.92,405.33,202.67,405.33A201.62,201.62,0,0,0,338,353.09L493.79,508.88a10.67,10.67,0,1,0,15.09-15.09ZM202.67,384c-100,0-181.34-81.34-181.34-181.33S102.69,21.33,202.67,21.33,384,102.68,384,202.67,302.65,384,202.67,384Z"/></g></g></svg>