<svg xmlns="http://www.w3.org/2000/svg" viewBox="0 0 558.43 167.48"><defs><style>.cls-1{fill:#fff;}</style></defs><title>Asset 1</title><g id="Layer_2" data-name="Layer 2"><g id="Layer_1-2" data-name="Layer 1"><path class="cls-1" d="M83.74,0a83.74,83.74,0,1,0,83.75,83.74A83.74,83.74,0,0,0,83.74,0Zm38.41,120.78a5.22,5.22,0,0,1-7.18,1.73c-19.67-12-44.42-14.73-73.57-8.07a5.22,5.22,0,0,1-2.32-10.18C71,97,98.34,100.11,120.42,113.6A5.22,5.22,0,0,1,122.15,120.78ZM132.4,98a6.53,6.53,0,0,1-9,2.15C100.91,86.29,66.59,82.29,40,90.37a6.53,6.53,0,1,1-3.8-12.49C66.59,68.65,104.4,73.12,130.25,89a6.53,6.53,0,0,1,2.15,9Zm.88-23.75c-27-16-71.52-17.5-97.29-9.68a7.83,7.83,0,1,1-4.55-15c29.58-9,78.76-7.24,109.83,11.2a7.83,7.83,0,1,1-8,13.47Zm94.56,3.08c-14.46-3.45-17-5.87-17-11,0-4.8,4.52-8,11.25-8,6.52,0,13,2.45,19.76,7.5a.91.91,0,0,0,.71.18.94.94,0,0,0,.63-.39l7.06-10a1,1,0,0,0-.18-1.29,42.74,42.74,0,0,0-27.77-9.62c-15.61,0-26.52,9.37-26.52,22.78,0,14.37,9.41,19.46,25.67,23.39,13.83,3.19,16.17,5.86,16.17,10.63,0,5.29-4.72,8.58-12.32,8.58-8.44,0-15.33-2.85-23-9.51a1,1,0,0,0-.69-.23.94.94,0,0,0-.65.33L193,110.14a1,1,0,0,0,.09,1.32A47.19,47.19,0,0,0,225,123.68c16.82,0,27.69-9.19,27.69-23.42,0-12-7.16-18.66-24.77-22.94ZM290.7,63.05c-7.29,0-13.27,2.87-18.21,8.75V65.18a1,1,0,0,0-.94-1H258.6a1,1,0,0,0-.94,1v73.6a1,1,0,0,0,.94.95h12.95a1,1,0,0,0,.94-.95V115.55a23.29,23.29,0,0,0,18.21,8.24c13.55,0,27.27-10.43,27.27-30.37s-13.7-30.37-27.26-30.37Zm12.21,30.37c0,10.15-6.25,17.24-15.21,17.24s-15.53-7.41-15.53-17.24,6.68-17.24,15.53-17.24,15.21,7.25,15.21,17.24Zm50.21-30.37C335.67,63.05,322,76.48,322,93.64c0,17,13.58,30.26,30.91,30.26,17.51,0,31.22-13.39,31.22-30.48s-13.62-30.37-31-30.37Zm0,47.71c-9.28,0-16.28-7.46-16.28-17.34s6.76-17.14,16.07-17.14,16.38,7.46,16.38,17.35S362.49,110.76,353.12,110.76Zm68.27-46.53H407.14V49.66a.94.94,0,0,0-.94-.94H393.25a1,1,0,0,0-.95.94V64.23h-6.22a1,1,0,0,0-.94,1V76.31a.94.94,0,0,0,.94.94h6.22v28.8c0,11.63,5.79,17.53,17.22,17.53a23.59,23.59,0,0,0,12.12-3,.93.93,0,0,0,.48-.82v-10.6a.94.94,0,0,0-.45-.8.92.92,0,0,0-.92,0,16.35,16.35,0,0,1-7.6,1.83c-4.15,0-6-1.89-6-6.11V77.26h14.25a1,1,0,0,0,.94-1V65.18a.91.91,0,0,0-.93-.94Zm49.64.06V62.5c0-5.26,2-7.61,6.54-7.61a21.87,21.87,0,0,1,7.3,1.34.92.92,0,0,0,.85-.13.93.93,0,0,0,.39-.77V44.42a1,1,0,0,0-.67-.91A35.6,35.6,0,0,0,474.68,42c-11.95,0-18.28,6.73-18.28,19.46v2.74h-6.22a1,1,0,0,0-.95,1V76.31a1,1,0,0,0,.95.94h6.22v44.41a1,1,0,0,0,1,1h12.94a.94.94,0,0,0,.95-1V77.26h12.09l18.52,44.4c-2.1,4.66-4.17,5.59-7,5.59a14.86,14.86,0,0,1-7.14-2,1,1,0,0,0-.75-.07.94.94,0,0,0-.56.51L482,135.29a1,1,0,0,0,.41,1.23,27.25,27.25,0,0,0,13.82,3.54c9.56,0,14.85-4.46,19.5-16.44l22.46-58a.92.92,0,0,0-.1-.88.91.91,0,0,0-.77-.41H523.86a1,1,0,0,0-.9.64l-13.81,39.43L494,64.9a.94.94,0,0,0-.88-.61Zm-28.78-.06H429.3a1,1,0,0,0-.95,1v56.48a1,1,0,0,0,.95,1h12.95a1,1,0,0,0,.95-1V65.18a1,1,0,0,0-.95-1Zm-6.4-25.72a9.29,9.29,0,1,0,9.28,9.28A9.28,9.28,0,0,0,435.85,38.51ZM549.27,82.39a9.14,9.14,0,1,1,9.16-9.16A9.16,9.16,0,0,1,549.27,82.39ZM549.32,65a8.23,8.23,0,1,0,8.15,8.2A8.15,8.15,0,0,0,549.32,65Zm2,9.13,2.58,3.61h-2.18l-2.32-3.31h-2v3.31h-1.82V68.21h4.26c2.23,0,3.69,1.14,3.69,3.05a2.82,2.82,0,0,1-2.21,2.9Zm-1.54-4.31h-2.37v3h2.37c1.18,0,1.89-.58,1.89-1.51S551,69.85,549.8,69.85Z"/></g></g></svg>